<?xml version="1.0" encoding="UTF-8" standalone="no"?>
<!DOCTYPE svg PUBLIC "-//W3C//DTD SVG 1.1//EN" "http://www.w3.org/Graphics/SVG/1.1/DTD/svg11.dtd">
<svg xmlns="http://www.w3.org/2000/svg" version="1.1" viewBox="0.00 0.00 100.00 100.00">
<g stroke-width="2.00" fill="none" stroke-linecap="butt">
<path stroke="#22c68d" vector-effect="non-scaling-stroke" d="
  M 79.04 50.04
  C 61.62 41.41 43.61 59.68 53.30 76.79"
/>
<path stroke="#12b994" vector-effect="non-scaling-stroke" d="
  M 53.30 76.79
  Q 53.40 77.47 54.03 78.01"
/>
<path stroke="#24c6a0" vector-effect="non-scaling-stroke" d="
  M 79.04 50.04
  Q 75.22 71.35 55.02 77.71
  Q 54.36 77.92 54.01 77.66
  Q 53.65 77.39 53.30 76.79"
/>
<path stroke="#47c6bf" vector-effect="non-scaling-stroke" d="
  M 51.51 50.48
  A 0.76 0.76 0.0 0 1 52.27 49.72
  L 58.39 49.73
  A 0.76 0.76 0.0 0 0 59.15 48.97
  L 59.17 41.03
  A 0.76 0.76 0.0 0 0 58.41 40.27
  L 52.27 40.26
  A 0.76 0.76 0.0 0 1 51.51 39.50
  L 51.48 33.43
  A 0.76 0.76 0.0 0 0 50.73 32.68
  L 42.76 32.64
  A 0.76 0.76 0.0 0 0 42.00 33.40
  L 42.01 39.49
  A 0.76 0.76 0.0 0 1 41.25 40.25
  L 35.13 40.25
  A 0.76 0.76 0.0 0 0 34.37 41.01
  L 34.38 48.96
  A 0.76 0.76 0.0 0 0 35.14 49.72
  L 41.24 49.73
  A 0.76 0.76 0.0 0 1 42.00 50.49
  L 42.01 56.56
  A 0.76 0.76 0.0 0 0 42.77 57.32
  L 50.75 57.31
  A 0.76 0.76 0.0 0 0 51.51 56.55
  L 51.51 50.48"
/>
</g>
<path fill="#10b981" d="
  M 79.04 50.04
  C 61.62 41.41 43.61 59.68 53.30 76.79
  Q 53.40 77.47 54.03 78.01
  Q 42.20 80.81 31.70 75.73
  Q 31.24 75.50 30.75 75.66
  L 12.84 81.63
  A 2.07 2.07 0.0 0 1 10.22 79.01
  L 16.23 61.04
  Q 16.37 60.60 16.18 60.18
  Q 10.75 48.79 13.68 37.98
  C 21.54 9.00 59.43 3.22 74.95 29.30
  Q 80.35 38.36 79.04 50.04
  Z
  M 51.51 50.48
  A 0.76 0.76 0.0 0 1 52.27 49.72
  L 58.39 49.73
  A 0.76 0.76 0.0 0 0 59.15 48.97
  L 59.17 41.03
  A 0.76 0.76 0.0 0 0 58.41 40.27
  L 52.27 40.26
  A 0.76 0.76 0.0 0 1 51.51 39.50
  L 51.48 33.43
  A 0.76 0.76 0.0 0 0 50.73 32.68
  L 42.76 32.64
  A 0.76 0.76 0.0 0 0 42.00 33.40
  L 42.01 39.49
  A 0.76 0.76 0.0 0 1 41.25 40.25
  L 35.13 40.25
  A 0.76 0.76 0.0 0 0 34.37 41.01
  L 34.38 48.96
  A 0.76 0.76 0.0 0 0 35.14 49.72
  L 41.24 49.73
  A 0.76 0.76 0.0 0 1 42.00 50.49
  L 42.01 56.56
  A 0.76 0.76 0.0 0 0 42.77 57.32
  L 50.75 57.31
  A 0.76 0.76 0.0 0 0 51.51 56.55
  L 51.51 50.48
  Z"
/>
<path fill="#7dd3fc" d="
  M 51.51 50.48
  L 51.51 56.55
  A 0.76 0.76 0.0 0 1 50.75 57.31
  L 42.77 57.32
  A 0.76 0.76 0.0 0 1 42.01 56.56
  L 42.00 50.49
  A 0.76 0.76 0.0 0 0 41.24 49.73
  L 35.14 49.72
  A 0.76 0.76 0.0 0 1 34.38 48.96
  L 34.37 41.01
  A 0.76 0.76 0.0 0 1 35.13 40.25
  L 41.25 40.25
  A 0.76 0.76 0.0 0 0 42.01 39.49
  L 42.00 33.40
  A 0.76 0.76 0.0 0 1 42.76 32.64
  L 50.73 32.68
  A 0.76 0.76 0.0 0 1 51.48 33.43
  L 51.51 39.50
  A 0.76 0.76 0.0 0 0 52.27 40.26
  L 58.41 40.27
  A 0.76 0.76 0.0 0 1 59.17 41.03
  L 59.15 48.97
  A 0.76 0.76 0.0 0 1 58.39 49.73
  L 52.27 49.72
  A 0.76 0.76 0.0 0 0 51.51 50.48
  Z"
/>
<path fill="#34d399" d="
  M 79.04 50.04
  Q 75.22 71.35 55.02 77.71
  Q 54.36 77.92 54.01 77.66
  Q 53.65 77.39 53.30 76.79
  C 43.61 59.68 61.62 41.41 79.04 50.04
  Z"
/>
<path fill="#14b8a6" d="
  M 79.04 50.04
  C 98.49 61.01 87.63 90.69 65.78 85.84
  Q 58.69 84.27 54.03 78.01
  Q 53.40 77.47 53.30 76.79
  Q 53.65 77.39 54.01 77.66
  Q 54.36 77.92 55.02 77.71
  Q 75.22 71.35 79.04 50.04
  Z"
/>
</svg>
