<?xml version="1.0" encoding="UTF-8" standalone="no"?>
<!DOCTYPE svg PUBLIC "-//W3C//DTD SVG 1.1//EN" "http://www.w3.org/Graphics/SVG/1.1/DTD/svg11.dtd">
<svg xmlns="http://www.w3.org/2000/svg" version="1.1" viewBox="0.00 0.00 228.00 193.00">
<g stroke-width="2.00" fill="none" stroke-linecap="butt">
<path stroke="#819eb4" vector-effect="non-scaling-stroke" d="
  M 114.48 17.79
  A 0.34 0.34 0.0 0 1 114.13 17.47
  L 113.60 9.13
  A 0.34 0.34 0.0 0 0 113.33 8.82
  L 111.86 8.51
  A 0.34 0.34 0.0 0 0 111.45 8.86
  L 111.96 19.36
  A 0.34 0.34 0.0 0 0 112.32 19.68
  L 120.10 19.29
  A 0.34 0.34 0.0 0 0 120.43 18.95
  L 120.44 17.97
  A 0.34 0.34 0.0 0 0 120.09 17.62
  L 114.48 17.79"
/>
<path stroke="#819eb4" vector-effect="non-scaling-stroke" d="
  M 97.77 19.36
  L 102.53 18.42
  A 1.32 1.31 64.7 0 1 103.80 18.88
  Q 104.40 19.63 105.13 20.28
  Q 105.87 20.94 106.62 20.35
  A 0.57 0.56 54.4 0 0 106.74 19.59
  Q 103.17 14.21 99.05 11.08
  A 1.39 1.39 0.0 0 0 96.88 11.77
  Q 95.44 16.39 94.57 21.64
  Q 94.43 22.51 95.29 22.72
  L 95.53 22.77
  Q 96.16 22.92 96.32 22.30
  L 96.86 20.22
  Q 97.05 19.51 97.77 19.36"
/>
<path stroke="#819eb4" vector-effect="non-scaling-stroke" d="
  M 144.88 19.95
  C 141.31 20.65 136.40 19.48 138.33 14.64
  C 139.77 11.04 143.71 12.47 146.53 13.22
  Q 146.99 13.34 147.24 12.93
  Q 147.42 12.64 147.14 12.44
  C 143.40 9.81 135.31 9.92 135.66 16.42
  C 135.92 21.18 140.57 23.00 144.71 21.67
  Q 145.51 21.41 145.38 20.59
  L 145.33 20.26
  A 0.38 0.38 0.0 0 0 144.88 19.95"
/>
<path stroke="#819eb4" vector-effect="non-scaling-stroke" d="
  M 153.53 21.36
  Q 154.00 20.39 155.01 20.73
  L 159.37 22.16
  A 0.47 0.47 0.0 0 0 159.97 21.85
  L 160.08 21.49
  A 0.76 0.75 -71.1 0 0 159.63 20.56
  L 155.83 19.13
  Q 154.48 18.62 155.13 17.33
  L 155.50 16.59
  Q 156.03 15.54 157.14 15.93
  L 161.91 17.63
  A 0.38 0.36 20.5 0 0 162.37 17.43
  L 162.54 17.03
  A 0.72 0.72 0.0 0 0 162.14 16.07
  L 156.34 13.81
  Q 154.63 13.14 153.97 14.86
  Q 152.42 18.91 151.57 23.16
  A 0.80 0.80 0.0 0 0 151.94 24.00
  Q 154.32 25.45 157.64 26.01
  A 0.71 0.71 0.0 0 0 158.05 24.67
  Q 156.24 23.86 154.02 23.63
  Q 152.50 23.48 153.17 22.09
  L 153.53 21.36"
/>
<path stroke="#819eb4" vector-effect="non-scaling-stroke" d="
  M 88.25 22.58
  C 81.33 27.47 76.82 18.25 82.06 16.72
  Q 83.92 16.18 86.09 15.85
  A 0.42 0.41 -14.4 0 0 86.42 15.30
  L 86.30 14.95
  Q 86.07 14.29 85.38 14.28
  Q 82.06 14.22 79.98 15.55
  C 76.79 17.60 76.61 22.15 79.91 24.37
  Q 84.71 27.61 88.86 23.37
  Q 88.97 23.26 89.01 23.12
  Q 89.04 22.99 89.01 22.86
  Q 88.83 22.16 88.25 22.58"
/>
<path stroke="#819eb4" vector-effect="non-scaling-stroke" d="
  M 170.66 25.26
  Q 170.90 29.02 171.57 32.82
  Q 171.65 33.29 172.01 33.52
  A 0.75 0.75 0.0 0 0 173.05 33.29
  L 178.35 24.74
  A 0.51 0.51 0.0 0 0 178.31 24.15
  Q 178.07 23.88 177.72 23.79
  Q 176.88 23.58 176.36 24.28
  Q 174.93 26.22 173.96 28.35
  Q 173.06 30.30 172.96 28.16
  Q 172.79 24.51 171.91 20.75
  A 0.91 0.91 0.0 0 0 170.27 20.45
  Q 169.04 22.29 167.47 23.92
  C 166.18 25.26 165.34 26.94 164.32 28.49
  Q 163.98 29.00 164.26 29.56
  Q 164.53 30.09 165.35 30.03
  A 0.75 0.72 -74.5 0 0 165.89 29.71
  L 169.16 24.85
  Q 170.51 22.85 170.66 25.26"
/>
<path stroke="#819eb4" vector-effect="non-scaling-stroke" d="
  M 68.9899 21.7248
  A 1.05 1.05 0.0 0 0 67.5267 21.4720
  L 67.4613 21.5181
  A 1.05 1.05 0.0 0 0 67.2086 22.9814
  L 72.6501 30.6952
  A 1.05 1.05 0.0 0 0 74.1133 30.9480
  L 74.1787 30.9019
  A 1.05 1.05 0.0 0 0 74.4314 29.4386
  L 68.9899 21.7248"
/>
<path stroke="#819eb4" vector-effect="non-scaling-stroke" d="
  M 65.49 32.12
  C 61.99 25.58 56.06 27.50 51.85 31.98
  Q 51.41 32.46 51.91 32.88
  Q 55.42 35.79 58.12 39.42
  Q 59.04 40.66 60.35 39.86
  C 62.65 38.46 67.12 35.15 65.49 32.12"
/>
<path stroke="#819eb4" vector-effect="non-scaling-stroke" d="
  M 186.65 32.05
  A 0.54 0.54 0.0 0 1 186.70 32.95
  Q 183.14 35.62 180.37 39.18
  A 0.61 0.61 0.0 0 0 180.48 40.04
  L 180.74 40.25
  Q 181.50 40.85 182.17 40.15
  L 188.27 33.87
  A 0.87 0.86 37.6 0 1 189.35 33.74
  L 192.21 35.53
  Q 192.76 35.87 193.11 35.34
  L 193.27 35.09
  A 0.52 0.52 0.0 0 0 193.07 34.35
  Q 189.20 32.39 186.01 29.35
  A 1.23 1.22 52.0 0 0 184.56 29.17
  L 184.33 29.30
  Q 183.95 29.52 184.21 29.87
  Q 185.24 31.23 186.65 32.05"
/>
<path stroke="#819eb4" vector-effect="non-scaling-stroke" d="
  M 44.10 43.70
  Q 43.00 43.09 43.66 42.02
  L 46.08 38.10
  A 0.50 0.49 44.5 0 0 46.07 37.56
  L 45.84 37.21
  Q 45.61 36.86 45.35 37.19
  L 41.24 42.36
  A 0.86 0.86 0.0 0 0 41.48 43.63
  Q 44.60 45.47 47.49 48.61
  A 1.89 1.89 0.0 0 0 50.24 48.64
  L 54.10 44.64
  Q 54.26 44.48 54.22 44.25
  Q 54.19 44.10 54.07 44.02
  Q 53.61 43.70 53.11 43.96
  Q 51.21 44.96 49.79 46.63
  Q 49.18 47.35 48.43 46.77
  L 47.15 45.80
  Q 46.37 45.20 47.14 44.57
  L 49.51 42.63
  A 1.13 1.12 -35.1 0 0 49.77 41.17
  L 49.54 40.80
  A 0.45 0.44 -37.6 0 0 48.84 40.71
  L 45.82 43.73
  Q 45.23 44.31 44.50 43.91
  L 44.10 43.70"
/>
<path stroke="#819eb4" vector-effect="non-scaling-stroke" d="
  M 194.74 45.84
  C 196.19 48.55 194.47 50.28 193.99 52.90
  A 0.49 0.49 0.0 0 0 194.41 53.47
  L 194.67 53.50
  A 0.86 0.84 9.6 0 0 195.59 52.86
  L 196.36 49.69
  A 0.80 0.80 0.0 0 1 197.32 49.10
  Q 199.95 49.74 201.91 47.64
  A 2.34 2.34 0.0 0 0 201.91 44.44
  L 198.40 40.70
  A 1.16 1.16 0.0 0 0 196.63 40.79
  Q 194.21 43.93 190.05 45.44
  Q 189.04 45.81 189.03 46.88
  Q 189.03 47.11 189.20 47.30
  Q 189.92 48.11 190.81 47.49
  L 193.57 45.56
  A 0.81 0.81 0.0 0 1 194.74 45.84"
/>
<path stroke="#819eb4" vector-effect="non-scaling-stroke" d="
  M 33.84 58.83
  Q 36.79 58.73 39.82 59.14
  A 1.22 1.22 0.0 0 0 41.02 57.28
  Q 39.98 55.62 38.16 54.00
  A 0.45 0.44 39.7 0 1 38.10 53.39
  L 38.25 53.18
  Q 38.31 53.10 38.40 53.15
  Q 41.20 54.99 44.32 55.72
  A 0.45 0.45 0.0 0 0 44.87 55.26
  Q 44.84 54.52 44.17 54.15
  Q 39.62 51.64 35.42 49.41
  A 0.89 0.88 -50.0 0 0 34.47 49.50
  Q 33.81 50.02 34.06 50.55
  Q 35.73 53.98 38.24 56.42
  Q 39.04 57.20 37.92 57.16
  Q 33.75 57.01 29.59 57.07
  Q 28.88 57.08 28.70 57.84
  A 1.13 1.11 -69.7 0 0 29.26 59.08
  L 39.10 64.31
  A 0.64 0.64 0.0 0 0 39.94 64.09
  L 40.12 63.81
  Q 40.62 63.02 39.80 62.58
  L 33.73 59.30
  Q 32.92 58.86 33.84 58.83"
/>
<path stroke="#819eb4" vector-effect="non-scaling-stroke" d="
  M 206.84 55.67
  Q 208.64 54.87 209.61 56.60
  Q 210.48 58.16 211.47 59.44
  Q 211.89 59.98 212.48 59.61
  A 0.71 0.70 -26.8 0 0 212.76 58.77
  Q 211.60 55.76 208.88 53.71
  Q 208.49 53.42 208.05 53.62
  Q 204.79 55.07 201.30 56.11
  Q 199.91 56.53 198.67 57.43
  A 1.31 1.30 56.0 0 0 198.34 59.17
  L 201.58 64.33
  Q 201.96 64.94 202.59 64.60
  L 202.94 64.41
  A 0.43 0.42 -28.9 0 0 203.12 63.82
  L 200.92 59.87
  Q 200.24 58.66 201.49 58.05
  L 202.40 57.61
  Q 203.70 56.98 204.38 58.27
  Q 205.28 60.00 206.43 61.51
  Q 206.86 62.08 207.50 61.78
  Q 208.09 61.51 207.84 60.90
  Q 207.15 59.23 206.00 57.72
  Q 205.06 56.47 206.49 55.83
  L 206.84 55.67"
/>
<path stroke="#a1dc9f" vector-effect="non-scaling-stroke" d="
  M 113.49 84.45
  Q 113.35 89.46 113.51 94.67
  Q 113.59 97.32 116.30 97.64
  Q 120.20 98.09 124.41 97.71
  Q 127.26 97.46 127.38 94.48
  Q 127.60 89.50 127.32 84.68
  A 0.88 0.88 0.0 0 1 128.25 83.75
  Q 134.50 84.06 139.45 83.70
  C 143.39 83.42 142.64 77.51 142.36 75.02
  Q 142.04 72.05 139.15 72.01
  Q 133.75 71.92 128.23 71.99
  A 0.90 0.89 1.5 0 1 127.32 71.04
  Q 127.70 65.62 127.21 60.68
  Q 126.94 57.97 124.22 57.97
  L 116.73 57.96
  A 3.30 3.30 0.0 0 0 113.43 61.28
  L 113.50 71.31
  Q 113.50 71.93 112.88 71.93
  L 101.28 71.98
  A 2.69 2.68 -83.7 0 0 98.66 74.08
  C 98.07 76.75 97.22 83.63 101.69 83.75
  Q 107.24 83.90 112.84 83.79
  Q 113.51 83.78 113.49 84.45"
/>
<path stroke="#89c1e6" vector-effect="non-scaling-stroke" d="
  M 82.21 100.65
  Q 86.63 103.14 91.05 105.64
  Q 99.40 110.36 107.91 110.97
  Q 111.35 111.21 108.76 108.95
  C 103.93 104.73 99.21 99.67 96.65 93.76
  Q 91.14 81.06 91.47 67.27
  Q 91.56 63.59 89.93 66.88
  Q 88.29 70.20 86.99 73.43
  C 85.50 77.11 80.50 79.43 77.11 80.81
  C 71.73 83.00 66.96 82.16 61.83 79.89
  Q 60.31 79.21 61.20 80.62
  Q 67.98 91.47 77.75 97.93
  Q 79.81 99.29 82.21 100.65"
/>
<path stroke="#89c1e6" vector-effect="non-scaling-stroke" d="
  M 156.34 76.76
  C 152.78 74.03 152.43 69.49 150.36 66.00
  Q 149.26 64.14 149.32 66.30
  Q 149.61 77.30 146.16 87.97
  C 143.20 97.16 138.35 103.47 131.04 109.43
  A 0.82 0.82 0.0 0 0 131.01 110.68
  Q 131.38 111.00 131.86 110.98
  Q 139.13 110.59 146.71 107.19
  C 150.86 105.33 154.33 102.61 158.26 100.70
  Q 170.24 94.88 179.76 80.44
  Q 180.39 79.49 179.31 79.84
  Q 176.84 80.63 174.25 81.49
  C 168.24 83.50 161.11 80.43 156.34 76.76"
/>
<path stroke="#89c1e6" vector-effect="non-scaling-stroke" d="
  M 81.99 71.93
  A 6.15 6.15 0.0 0 0 75.84 65.78
  L 72.18 65.78
  A 6.15 6.15 0.0 0 0 66.03 71.93
  L 66.03 73.17
  A 6.15 6.15 0.0 0 0 72.18 79.32
  L 75.84 79.32
  A 6.15 6.15 0.0 0 0 81.99 73.17
  L 81.99 71.93"
/>
<path stroke="#89c1e6" vector-effect="non-scaling-stroke" d="
  M 174.5441 72.1254
  A 6.11 6.11 0.0 0 0 168.5961 65.8576
  L 165.1373 65.7670
  A 6.11 6.11 0.0 0 0 158.8694 71.7150
  L 158.8359 72.9946
  A 6.11 6.11 0.0 0 0 164.7839 79.2624
  L 168.2427 79.3530
  A 6.11 6.11 0.0 0 0 174.5106 73.4050
  L 174.5441 72.1254"
/>
<path stroke="#819eb4" vector-effect="non-scaling-stroke" d="
  M 210.42 68.70
  A 1.22 1.22 0.0 0 0 209.20 67.48
  A 1.22 1.22 0.0 0 0 207.98 68.70
  A 1.22 1.22 0.0 0 0 209.20 69.92
  A 1.22 1.22 0.0 0 0 210.42 68.70"
/>
<path stroke="#819eb4" vector-effect="non-scaling-stroke" d="
  M 33.0248 68.6103
  A 1.32 1.12 -8.7 0 0 31.5506 67.7029
  A 1.32 1.12 -8.7 0 0 30.4152 69.0097
  A 1.32 1.12 -8.7 0 0 31.8894 69.9171
  A 1.32 1.12 -8.7 0 0 33.0248 68.6103"
/>
<path stroke="#819eb4" vector-effect="non-scaling-stroke" d="
  M 29.58 135.36
  Q 31.33 137.91 32.85 140.83
  Q 33.42 141.93 34.41 142.30
  A 1.88 1.88 0.0 0 0 36.69 141.47
  L 40.45 134.91
  Q 40.95 134.02 40.95 135.04
  L 40.96 143.26
  Q 40.96 144.32 42.01 144.27
  L 42.46 144.26
  Q 43.67 144.21 43.69 142.99
  Q 43.76 137.22 43.60 131.45
  Q 43.56 130.13 42.51 129.85
  A 1.07 1.07 0.0 0 0 41.44 130.16
  Q 37.89 134.00 35.71 138.62
  A 0.78 0.78 0.0 0 1 34.30 138.62
  Q 31.96 133.58 28.54 130.17
  A 1.31 1.31 0.0 0 0 26.31 131.10
  L 26.30 143.42
  A 0.85 0.85 0.0 0 0 27.16 144.27
  L 28.33 144.25
  Q 29.14 144.23 29.14 143.42
  L 29.07 135.52
  Q 29.06 134.60 29.58 135.36"
/>
<path stroke="#819eb4" vector-effect="non-scaling-stroke" d="
  M 82.80 135.09
  L 82.82 131.05
  Q 82.83 129.88 81.66 129.96
  Q 81.49 129.98 81.32 129.98
  Q 79.79 129.99 79.79 131.52
  L 79.75 143.27
  A 1.01 1.01 0.0 0 0 80.77 144.28
  L 81.87 144.26
  A 0.89 0.89 0.0 0 0 82.75 143.39
  L 82.87 139.04
  Q 82.90 138.22 83.71 138.22
  L 89.97 138.23
  Q 90.97 138.23 90.96 139.22
  L 90.93 143.22
  Q 90.92 144.28 91.97 144.27
  L 92.58 144.27
  Q 93.93 144.26 93.92 142.92
  L 93.89 131.20
  Q 93.89 130.23 92.98 129.89
  Q 92.56 129.73 92.14 129.85
  Q 90.87 130.20 90.89 131.52
  L 90.96 134.95
  Q 90.98 135.87 90.05 135.87
  L 83.59 135.88
  Q 82.80 135.89 82.80 135.09"
/>
<path stroke="#819eb4" vector-effect="non-scaling-stroke" d="
  M 173.24 142.00
  A 1.10 1.09 -76.0 0 1 174.23 141.40
  L 180.66 141.43
  Q 181.22 141.43 181.59 141.85
  C 182.53 142.90 183.61 144.76 185.25 144.16
  A 0.57 0.57 0.0 0 0 185.56 143.35
  Q 182.95 138.48 180.62 133.81
  Q 179.71 132.00 178.08 130.32
  A 1.39 1.39 0.0 0 0 176.00 130.41
  C 175.01 131.63 174.16 132.92 173.76 134.45
  Q 172.50 139.27 169.95 143.12
  Q 169.43 143.90 170.34 144.09
  L 171.11 144.25
  A 1.16 1.15 -70.0 0 0 172.38 143.65
  L 173.24 142.00"
/>
<path stroke="#819eb4" vector-effect="non-scaling-stroke" d="
  M 62.7292 137.2985
  A 8.49 7.31 0.8 0 0 54.3421 129.8707
  A 8.49 7.31 0.8 0 0 45.7508 137.0615
  A 8.49 7.31 0.8 0 0 54.1379 144.4893
  A 8.49 7.31 0.8 0 0 62.7292 137.2985"
/>
<path stroke="#819eb4" vector-effect="non-scaling-stroke" d="
  M 71.99 132.64
  A 0.43 0.43 0.0 0 1 72.42 132.21
  L 77.56 132.24
  A 0.43 0.43 0.0 0 0 77.99 131.77
  L 77.87 130.48
  A 0.43 0.43 0.0 0 0 77.44 130.09
  L 64.23 130.19
  A 0.43 0.43 0.0 0 0 63.80 130.65
  L 63.87 131.74
  A 0.43 0.43 0.0 0 0 64.29 132.14
  L 68.41 132.27
  A 0.43 0.43 0.0 0 1 68.82 132.69
  L 68.88 143.70
  A 0.43 0.43 0.0 0 0 69.30 144.13
  L 71.41 144.18
  A 0.43 0.43 0.0 0 0 71.86 143.75
  L 71.99 132.64"
/>
<path stroke="#819eb4" vector-effect="non-scaling-stroke" d="
  M 100.69 138.47
  A 0.35 0.35 0.0 0 1 101.04 138.13
  L 108.35 138.09
  A 0.35 0.35 0.0 0 0 108.70 137.73
  L 108.67 136.29
  A 0.35 0.35 0.0 0 0 108.32 135.95
  L 101.01 135.95
  A 0.35 0.35 0.0 0 1 100.66 135.61
  L 100.60 132.53
  A 0.35 0.35 0.0 0 1 100.95 132.17
  L 108.73 132.20
  A 0.35 0.35 0.0 0 0 109.08 131.85
  L 109.08 130.42
  A 0.35 0.35 0.0 0 0 108.73 130.07
  L 98.16 130.22
  A 0.35 0.35 0.0 0 0 97.82 130.56
  L 97.78 143.75
  A 0.35 0.35 0.0 0 0 98.13 144.10
  L 108.76 144.20
  A 0.35 0.35 0.0 0 0 109.11 143.81
  L 109.01 142.77
  A 0.35 0.35 0.0 0 0 108.66 142.45
  L 100.98 142.42
  A 0.35 0.35 0.0 0 1 100.64 142.07
  L 100.69 138.47"
/>
<path stroke="#819eb4" vector-effect="non-scaling-stroke" d="
  M 122.03 138.11
  Q 124.56 137.05 124.84 134.48
  C 125.41 129.11 115.44 129.93 112.49 130.15
  A 1.07 1.07 0.0 0 0 111.50 131.22
  L 111.50 142.88
  Q 111.50 144.53 113.13 144.33
  L 113.43 144.30
  Q 114.51 144.17 114.52 143.07
  L 114.54 139.44
  Q 114.55 138.67 115.31 138.72
  L 118.12 138.87
  Q 118.75 138.91 119.09 139.44
  Q 119.73 140.45 120.50 141.40
  A 16.19 1.20 50.2 0 1 121.86 143.11
  Q 123.28 144.94 124.77 143.95
  A 0.69 0.69 0.0 0 0 124.94 142.96
  L 121.83 138.86
  Q 121.44 138.35 122.03 138.11"
/>
<path stroke="#819eb4" vector-effect="non-scaling-stroke" d="
  M 136.61 141.75
  C 134.48 143.19 131.13 142.48 128.66 141.73
  A 0.60 0.59 24.1 0 0 127.97 141.99
  Q 127.82 142.26 127.93 142.55
  Q 128.07 142.89 128.38 143.06
  C 131.51 144.85 136.09 144.88 139.09 142.54
  C 141.40 140.75 139.38 137.67 137.21 136.96
  Q 134.59 136.12 131.47 135.57
  A 1.42 1.41 -80.6 0 1 130.32 133.96
  C 130.77 130.97 136.87 132.33 138.58 132.73
  Q 139.13 132.86 139.22 132.30
  Q 139.35 131.46 138.59 131.09
  C 135.54 129.61 131.80 129.29 129.09 131.70
  C 126.75 133.78 128.35 137.02 130.87 137.84
  Q 133.46 138.68 136.18 139.35
  A 1.33 1.33 0.0 0 1 136.61 141.75"
/>
<path stroke="#819eb4" vector-effect="non-scaling-stroke" d="
  M 144.84 130.23
  L 142.84 130.14
  A 0.51 0.51 0.0 0 0 142.31 130.63
  L 142.30 130.87
  A 4.91 1.35 -87.5 0 0 143.44 135.83
  L 143.76 135.84
  A 4.91 1.35 -87.5 0 0 145.32 131.00
  L 145.33 130.76
  A 0.51 0.51 0.0 0 0 144.84 130.23"
/>
<path stroke="#819eb4" vector-effect="non-scaling-stroke" d="
  M 157.26 139.26
  C 155.28 131.18 162.25 131.62 167.41 132.86
  A 0.37 0.37 0.0 0 0 167.87 132.45
  L 167.82 132.08
  Q 167.70 131.16 166.83 130.84
  C 160.24 128.34 151.75 131.16 154.12 139.87
  C 155.55 145.15 163.90 144.86 167.66 143.03
  A 0.49 0.48 75.7 0 0 167.93 142.56
  L 167.91 142.26
  Q 167.85 141.56 167.18 141.74
  C 164.09 142.55 158.32 143.55 157.26 139.26"
/>
<path stroke="#819eb4" vector-effect="non-scaling-stroke" d="
  M 197.91 138.07
  Q 198.44 137.84 198.88 137.44
  C 202.15 134.40 200.18 130.79 196.42 130.31
  Q 193.04 129.87 189.50 130.10
  A 1.41 1.40 88.3 0 0 188.18 131.51
  L 188.22 142.95
  Q 188.22 144.44 189.70 144.32
  L 190.28 144.27
  Q 191.25 144.19 191.24 143.22
  L 191.19 139.50
  Q 191.18 138.89 191.79 138.78
  Q 193.24 138.52 194.58 138.90
  Q 195.15 139.06 195.36 139.61
  Q 196.14 141.61 197.58 143.31
  A 2.62 2.60 67.3 0 0 199.78 144.22
  Q 199.94 144.21 200.10 144.17
  Q 201.31 143.84 200.56 142.85
  L 197.66 139.02
  Q 197.18 138.38 197.91 138.07"
/>
<path stroke="#819eb4" vector-effect="non-scaling-stroke" d="
  M 206.92 138.48
  A 0.31 0.31 0.0 0 1 207.23 138.18
  L 214.69 138.12
  A 0.31 0.31 0.0 0 0 215.00 137.84
  L 215.15 136.37
  A 0.31 0.31 0.0 0 0 214.84 136.02
  L 207.16 135.90
  A 0.31 0.31 0.0 0 1 206.86 135.60
  L 206.83 132.57
  A 0.31 0.31 0.0 0 1 207.14 132.26
  L 215.07 132.20
  A 0.31 0.31 0.0 0 0 215.38 131.93
  L 215.55 130.58
  A 0.31 0.31 0.0 0 0 215.25 130.23
  L 204.32 130.09
  A 0.31 0.31 0.0 0 0 204.00 130.41
  L 204.12 143.87
  A 0.31 0.31 0.0 0 0 204.43 144.18
  L 215.31 144.13
  A 0.31 0.31 0.0 0 0 215.62 143.78
  L 215.49 142.79
  A 0.31 0.31 0.0 0 0 215.19 142.52
  L 207.16 142.40
  A 0.31 0.31 0.0 0 1 206.86 142.09
  L 206.92 138.48"
/>
<path stroke="#819eb4" vector-effect="non-scaling-stroke" d="
  M 206.97 151.58
  A 0.52 0.52 0.0 0 0 206.45 151.06
  L 34.07 151.06
  A 0.52 0.52 0.0 0 0 33.55 151.58
  L 33.55 151.98
  A 0.52 0.52 0.0 0 0 34.07 152.50
  L 206.45 152.50
  A 0.52 0.52 0.0 0 0 206.97 151.98
  L 206.97 151.58"
/>
<path stroke="#90cd8f" vector-effect="non-scaling-stroke" d="
  M 30.73 163.16
  L 32.70 167.31
  A 0.73 0.73 0.0 0 0 34.01 167.31
  L 37.01 161.11
  A 0.45 0.44 27.8 0 0 36.82 160.52
  L 36.54 160.37
  A 0.55 0.54 24.7 0 0 35.77 160.65
  L 34.09 165.03
  A 0.74 0.74 0.0 0 1 32.73 165.07
  Q 32.00 163.48 31.34 161.69
  Q 30.28 158.83 29.38 161.75
  Q 28.77 163.73 27.57 165.43
  A 0.55 0.54 -37.2 0 1 26.61 165.30
  L 25.09 160.86
  Q 24.91 160.35 24.40 160.54
  L 24.11 160.65
  A 0.34 0.33 68.7 0 0 23.92 161.09
  L 26.51 167.21
  Q 27.16 168.74 27.90 167.25
  L 29.94 163.15
  Q 30.34 162.35 30.73 163.16"
/>
<path stroke="#90cd8f" vector-effect="non-scaling-stroke" d="
  M 43.52 164.46
  L 45.49 164.76
  Q 45.82 164.81 45.87 164.48
  L 45.92 164.16
  Q 45.96 163.90 45.71 163.89
  L 43.68 163.78
  A 0.96 0.95 87.8 0 1 42.78 162.94
  L 42.73 162.50
  Q 42.60 161.35 43.75 161.38
  L 46.33 161.46
  Q 46.69 161.47 46.69 161.11
  L 46.69 160.76
  Q 46.69 160.56 46.49 160.52
  Q 44.49 160.15 42.36 160.63
  Q 41.80 160.75 41.79 161.33
  L 41.71 166.95
  Q 41.70 167.52 42.26 167.60
  Q 44.21 167.89 46.24 167.71
  Q 46.46 167.69 46.59 167.53
  Q 46.70 167.39 46.62 167.19
  Q 46.44 166.79 46.01 166.79
  L 43.86 166.76
  Q 43.15 166.76 42.92 166.08
  Q 42.73 165.53 42.85 164.93
  Q 42.96 164.37 43.52 164.46"
/>
<path stroke="#90cd8f" vector-effect="non-scaling-stroke" d="
  M 60.77 161.72
  Q 62.44 161.09 64.63 161.95
  Q 64.96 162.08 65.10 161.75
  L 65.22 161.48
  Q 65.30 161.29 65.12 161.20
  C 62.13 159.63 57.65 160.05 57.80 164.36
  C 57.92 167.79 62.24 168.27 64.80 167.27
  Q 65.13 167.14 64.99 166.82
  L 64.88 166.58
  A 0.47 0.47 0.0 0 0 64.28 166.33
  Q 61.45 167.38 59.87 165.75
  A 2.47 2.47 0.0 0 1 60.77 161.72"
/>
<path stroke="#90cd8f" vector-effect="non-scaling-stroke" d="
  M 70.96 165.75
  L 74.30 165.74
  A 0.97 0.96 83.6 0 1 75.24 166.50
  Q 75.35 167.00 75.75 167.23
  Q 78.04 168.53 76.62 166.30
  Q 74.88 163.57 73.60 160.89
  A 0.93 0.93 0.0 0 0 71.96 160.82
  Q 70.37 163.55 68.57 166.51
  Q 68.30 166.95 68.33 167.45
  Q 68.38 168.37 69.05 167.74
  Q 69.63 167.19 69.91 166.47
  A 1.13 1.13 0.0 0 1 70.96 165.75"
/>
<path stroke="#90cd8f" vector-effect="non-scaling-stroke" d="
  M 83.81 164.44
  C 86.48 164.84 86.09 165.85 87.34 167.67
  Q 87.41 167.77 87.54 167.78
  Q 87.71 167.80 87.81 167.70
  Q 88.07 167.43 87.91 167.10
  Q 86.86 164.98 87.76 163.00
  A 1.78 1.77 -72.5 0 0 86.48 160.53
  Q 84.48 160.14 82.45 160.46
  Q 81.75 160.56 81.75 161.27
  L 81.75 167.20
  A 0.60 0.60 0.0 0 0 82.41 167.80
  L 82.73 167.76
  A 0.62 0.62 0.0 0 0 83.27 166.98
  Q 83.00 166.01 83.07 165.04
  Q 83.12 164.34 83.81 164.44"
/>
<path stroke="#90cd8f" vector-effect="non-scaling-stroke" d="
  M 93.72 162.18
  A 0.93 0.92 -84.9 0 1 94.81 161.26
  Q 96.54 161.60 98.24 161.32
  Q 98.50 161.28 98.47 161.02
  L 98.44 160.76
  Q 98.40 160.36 97.99 160.36
  L 93.70 160.34
  Q 92.48 160.33 92.49 161.55
  L 92.53 166.42
  Q 92.54 167.80 93.92 167.78
  L 97.94 167.73
  Q 98.42 167.73 98.40 167.25
  L 98.38 166.90
  Q 98.38 166.82 98.30 166.82
  L 94.73 166.75
  A 1.02 1.01 -89.4 0 1 93.74 165.73
  L 93.74 165.31
  Q 93.74 164.36 94.69 164.49
  L 97.49 164.89
  Q 97.70 164.92 97.71 164.71
  L 97.71 164.33
  Q 97.71 164.15 97.53 164.13
  L 94.73 163.82
  Q 93.75 163.71 93.73 162.73
  L 93.72 162.18"
/>
<path stroke="#90cd8f" vector-effect="non-scaling-stroke" d="
  M 115.07 166.25
  L 116.39 167.84
  A 0.19 0.19 0.0 0 0 116.67 167.85
  L 116.85 167.65
  A 0.59 0.58 51.4 0 0 116.92 166.97
  L 113.33 160.83
  A 0.91 0.90 47.5 0 0 111.81 160.76
  Q 110.07 163.24 109.12 167.14
  Q 108.92 167.98 109.55 167.40
  Q 109.97 167.03 110.09 166.46
  A 0.88 0.87 6.1 0 1 110.95 165.78
  L 114.07 165.78
  A 1.30 1.30 0.0 0 1 115.07 166.25"
/>
<path stroke="#90cd8f" vector-effect="non-scaling-stroke" d="
  M 121.52 161.16
  L 121.73 167.18
  A 0.71 0.71 0.0 0 0 122.46 167.86
  L 126.08 167.74
  A 2.59 2.01 -2.0 0 0 128.60 165.64
  L 128.48 162.22
  A 2.59 2.01 -2.0 0 0 125.82 160.30
  L 122.20 160.43
  A 0.71 0.71 0.0 0 0 121.52 161.16"
/>
<path stroke="#90cd8f" vector-effect="non-scaling-stroke" d="
  M 140.7925 164.3226
  A 4.26 3.79 3.4 0 0 136.7648 160.2867
  A 4.26 3.79 3.4 0 0 132.2875 163.8174
  A 4.26 3.79 3.4 0 0 136.3152 167.8533
  A 4.26 3.79 3.4 0 0 140.7925 164.3226"
/>
<path stroke="#90cd8f" vector-effect="non-scaling-stroke" d="
  M 160.05 162.09
  Q 159.52 164.69 160.00 167.69
  Q 160.04 167.95 160.30 167.94
  L 160.63 167.92
  Q 161.08 167.90 161.09 167.45
  L 161.23 162.19
  Q 161.25 161.62 161.82 161.54
  L 164.25 161.21
  Q 164.43 161.19 164.43 161.00
  L 164.42 160.67
  A 0.48 0.48 0.0 0 0 163.87 160.21
  Q 160.44 160.72 157.24 160.22
  Q 156.80 160.15 156.77 160.60
  L 156.74 160.96
  Q 156.72 161.26 157.02 161.33
  Q 158.22 161.60 159.48 161.46
  Q 160.19 161.39 160.05 162.09"
/>
<path stroke="#90cd8f" vector-effect="non-scaling-stroke" d="
  M 176.56 163.22
  L 174.50 160.29
  Q 174.44 160.22 174.37 160.27
  L 174.12 160.43
  A 0.53 0.53 0.0 0 0 173.91 161.09
  Q 174.72 162.96 176.12 164.27
  Q 176.55 164.68 176.54 165.27
  L 176.49 167.55
  Q 176.47 168.15 177.05 167.98
  L 177.40 167.87
  A 0.52 0.52 0.0 0 0 177.77 167.26
  C 176.96 163.35 179.93 163.64 180.59 160.92
  Q 180.87 159.74 179.90 160.46
  Q 178.57 161.44 177.69 163.14
  Q 177.19 164.12 176.56 163.22"
/>
<path stroke="#90cd8f" vector-effect="non-scaling-stroke" d="
  M 193.33 164.06
  A 4.21 3.79 0.0 0 0 189.12 160.27
  A 4.21 3.79 0.0 0 0 184.91 164.06
  A 4.21 3.79 0.0 0 0 189.12 167.85
  A 4.21 3.79 0.0 0 0 193.33 164.06"
/>
<path stroke="#90cd8f" vector-effect="non-scaling-stroke" d="
  M 200.60 166.82
  Q 198.84 166.43 198.72 164.64
  Q 198.60 163.01 198.94 161.32
  Q 199.08 160.57 198.32 160.52
  L 198.00 160.50
  Q 197.22 160.45 197.30 161.23
  C 197.51 163.29 196.88 167.36 199.88 167.72
  C 205.28 168.37 205.36 164.96 204.92 160.87
  Q 204.85 160.19 204.17 160.30
  L 203.82 160.35
  A 0.30 0.30 0.0 0 0 203.57 160.66
  L 203.74 163.97
  Q 203.87 166.58 201.28 166.86
  Q 200.93 166.90 200.60 166.82"
/>
<path stroke="#90cd8f" vector-effect="non-scaling-stroke" d="
  M 211.51 163.43
  Q 210.77 162.01 212.20 161.46
  Q 213.82 160.83 215.17 161.92
  Q 215.73 162.37 215.64 163.07
  Q 215.54 163.81 214.91 164.09
  C 214.08 164.46 213.26 164.03 212.39 164.25
  Q 211.63 164.44 212.40 164.58
  L 213.77 164.83
  Q 214.35 164.94 214.63 165.46
  L 215.79 167.64
  Q 215.87 167.79 216.02 167.72
  L 216.27 167.61
  Q 216.63 167.44 216.46 167.09
  Q 215.56 165.21 216.41 163.35
  A 2.14 2.14 0.0 0 0 214.43 160.31
  L 210.84 160.38
  A 0.65 0.65 0.0 0 0 210.20 161.03
  L 210.14 167.25
  A 0.64 0.63 -88.1 0 0 210.73 167.89
  L 211.06 167.91
  Q 211.66 167.96 211.55 167.37
  Q 211.30 165.97 211.65 164.64
  Q 211.82 164.01 211.51 163.43"
/>
<path stroke="#90cd8f" vector-effect="non-scaling-stroke" d="
  M 149.82 166.89
  C 146.22 166.67 147.33 163.13 147.21 160.85
  Q 147.20 160.61 146.97 160.56
  L 146.50 160.45
  A 0.45 0.45 0.0 0 0 145.96 160.82
  Q 145.56 163.57 146.22 166.02
  A 1.50 1.50 0.0 0 0 146.83 166.89
  Q 148.64 168.11 151.03 167.76
  Q 151.69 167.67 152.01 167.09
  C 153.02 165.28 152.77 162.84 152.75 160.83
  Q 152.75 160.54 152.45 160.56
  L 152.09 160.59
  Q 151.81 160.61 151.85 160.89
  Q 152.21 163.58 151.59 165.66
  Q 151.19 166.98 149.82 166.89"
/>
<path stroke="#90cd8f" vector-effect="non-scaling-stroke" d="
  M 89.3339 179.9484
  A 4.08 0.72 88.4 0 0 89.9397 175.8499
  A 4.08 0.72 88.4 0 0 89.1061 171.7916
  A 4.08 0.72 88.4 0 0 88.5003 175.8901
  A 4.08 0.72 88.4 0 0 89.3339 179.9484"
/>
<path stroke="#90cd8f" vector-effect="non-scaling-stroke" d="
  M 95.16 176.45
  L 95.00 179.18
  A 0.40 0.40 0.0 0 0 95.43 179.61
  L 95.83 179.59
  A 0.63 0.62 88.5 0 0 96.41 178.97
  L 96.45 172.76
  Q 96.45 172.12 95.81 172.05
  L 95.49 172.01
  A 0.35 0.34 -87.1 0 0 95.11 172.36
  L 95.14 174.82
  Q 95.15 175.56 94.42 175.45
  Q 92.53 175.20 90.88 175.45
  Q 90.10 175.57 90.85 175.80
  Q 92.48 176.30 94.31 175.78
  A 0.67 0.66 -6.6 0 1 95.16 176.45"
/>
<path stroke="#90cd8f" vector-effect="non-scaling-stroke" d="
  M 103.35 173.12
  Q 104.99 172.89 106.70 173.29
  A 0.42 0.41 16.2 0 0 107.19 173.03
  L 107.27 172.79
  A 0.37 0.37 0.0 0 0 107.01 172.32
  Q 104.78 171.78 102.34 172.27
  Q 101.73 172.39 101.72 173.02
  L 101.62 178.23
  A 1.48 1.47 0.6 0 0 103.10 179.73
  L 106.95 179.71
  Q 107.44 179.71 107.41 179.23
  L 107.39 178.87
  A 0.53 0.53 0.0 0 0 106.76 178.38
  L 104.32 178.84
  A 1.42 1.42 0.0 0 1 102.63 177.52
  Q 102.59 176.71 102.97 176.03
  Q 103.19 175.66 103.00 175.27
  Q 102.65 174.55 102.74 173.75
  A 0.72 0.71 -1.1 0 1 103.35 173.12"
/>
<path stroke="#90cd8f" vector-effect="non-scaling-stroke" d="
  M 125.35 177.68
  Q 125.67 174.98 125.33 172.35
  Q 125.29 172.04 124.98 172.06
  L 124.64 172.08
  Q 124.20 172.11 124.21 172.55
  L 124.26 178.78
  Q 124.27 179.54 125.03 179.58
  L 129.19 179.76
  A 0.57 0.57 0.0 0 0 129.76 179.03
  Q 129.66 178.70 129.37 178.57
  Q 128.75 178.31 128.11 178.50
  Q 127.01 178.82 125.98 178.58
  Q 125.26 178.42 125.35 177.68"
/>
<path stroke="#90cd8f" vector-effect="non-scaling-stroke" d="
  M 135.53 173.37
  A 0.23 0.23 0.0 0 1 135.74 173.60
  L 135.81 179.62
  A 0.23 0.23 0.0 0 0 136.05 179.85
  L 136.78 179.81
  A 0.23 0.23 0.0 0 0 137.00 179.58
  L 136.97 173.60
  A 0.23 0.23 0.0 0 1 137.19 173.37
  L 140.09 173.26
  A 0.23 0.23 0.0 0 0 140.32 173.01
  L 140.27 172.37
  A 0.23 0.23 0.0 0 0 140.04 172.15
  L 132.76 172.26
  A 0.23 0.23 0.0 0 0 132.56 172.38
  L 132.34 172.80
  A 0.23 0.23 0.0 0 0 132.53 173.14
  L 135.53 173.37"
/>
<path stroke="#90cd8f" vector-effect="non-scaling-stroke" d="
  M 145.4114 179.8584
  A 3.99 0.76 88.4 0 0 146.0597 175.8488
  A 3.99 0.76 88.4 0 0 145.1886 171.8816
  A 3.99 0.76 88.4 0 0 144.5403 175.8912
  A 3.99 0.76 88.4 0 0 145.4114 179.8584"
/>
<path stroke="#90cd8f" vector-effect="non-scaling-stroke" d="
  M 150.16 175.76
  A 0.72 0.72 0.0 0 1 151.06 176.44
  L 151.11 179.35
  A 0.36 0.36 0.0 0 0 151.70 179.63
  Q 152.08 179.32 152.13 178.81
  Q 152.46 175.45 151.93 172.21
  Q 151.90 172.04 151.73 172.05
  L 151.39 172.05
  Q 151.05 172.06 151.06 172.40
  L 151.14 174.92
  Q 151.17 175.90 150.25 175.57
  Q 148.80 175.04 147.22 175.41
  Q 146.35 175.62 147.23 175.80
  Q 148.74 176.12 150.16 175.76"
/>
<path stroke="#90cd8f" vector-effect="non-scaling-stroke" d="
  M 117.61 177.74
  L 118.71 179.53
  A 0.45 0.44 -24.4 0 0 119.24 179.72
  L 119.55 179.61
  A 0.39 0.39 0.0 0 0 119.76 179.05
  L 115.93 172.53
  A 0.82 0.82 0.0 0 0 114.51 172.55
  L 110.86 179.20
  Q 110.80 179.31 110.90 179.39
  L 111.16 179.60
  Q 111.40 179.81 111.60 179.56
  L 112.97 177.88
  A 0.95 0.94 28.1 0 1 113.98 177.58
  Q 115.37 178.00 116.66 177.44
  Q 117.27 177.18 117.61 177.74"
/>
<path stroke="#a1dc9f" vector-effect="non-scaling-stroke" d="
  M 104.16 175.95
  Q 105.63 176.46 106.28 176.21
  Q 107.61 175.71 106.26 175.26
  Q 105.30 174.94 104.14 175.43
  Q 103.47 175.71 104.16 175.95"
/>
<path stroke="#819eb4" vector-effect="non-scaling-stroke" d="
  M 98.14 13.36
  C 97.86 14.49 97.47 15.94 97.54 17.12
  Q 97.58 17.72 98.17 17.59
  L 101.56 16.84
  Q 102.23 16.69 101.79 16.16
  L 99.24 13.10
  A 0.64 0.63 -58.2 0 0 98.14 13.36"
/>
<path stroke="#819eb4" vector-effect="non-scaling-stroke" d="
  M 60.52 30.00
  A 1.23 1.23 0.0 0 0 59.24 29.72
  L 55.57 31.05
  A 1.23 1.23 0.0 0 0 55.13 33.09
  L 59.41 37.20
  A 1.23 1.23 0.0 0 0 61.20 37.11
  L 63.42 34.50
  A 1.23 1.23 0.0 0 0 63.36 32.83
  L 60.52 30.00"
/>
<path stroke="#819eb4" vector-effect="non-scaling-stroke" d="
  M 199.9581 46.6173
  A 2.43 1.84 35.1 0 0 199.0280 43.7146
  A 2.43 1.84 35.1 0 0 195.9819 43.8227
  A 2.43 1.84 35.1 0 0 196.9120 46.7254
  A 2.43 1.84 35.1 0 0 199.9581 46.6173"
/>
<path stroke="#819eb4" vector-effect="non-scaling-stroke" d="
  M 174.35 138.58
  A 0.49 0.49 0.0 0 0 174.81 139.25
  L 179.61 139.19
  A 0.49 0.49 0.0 0 0 180.06 138.50
  L 177.58 132.94
  A 0.49 0.49 0.0 0 0 176.68 132.95
  L 174.35 138.58"
/>
<path stroke="#819eb4" vector-effect="non-scaling-stroke" d="
  M 59.2123 135.9787
  A 3.79 3.79 0.0 0 0 55.4289 132.1821
  L 53.0289 132.1779
  A 3.79 3.79 0.0 0 0 49.2323 135.9613
  L 49.2277 138.5813
  A 3.79 3.79 0.0 0 0 53.0111 142.3779
  L 55.4111 142.3821
  A 3.79 3.79 0.0 0 0 59.2077 138.5987
  L 59.2123 135.9787"
/>
<path stroke="#819eb4" vector-effect="non-scaling-stroke" d="
  M 114.54 132.86
  L 114.47 135.70
  A 0.79 0.79 0.0 0 0 115.24 136.51
  L 118.97 136.60
  A 2.90 2.03 1.4 0 0 121.91 134.64
  L 121.92 134.28
  A 2.90 2.03 1.4 0 0 119.07 132.18
  L 115.34 132.09
  A 0.79 0.79 0.0 0 0 114.54 132.86"
/>
<path stroke="#819eb4" vector-effect="non-scaling-stroke" d="
  M 191.19 133.08
  L 191.21 135.76
  A 0.95 0.95 0.0 0 0 192.17 136.70
  L 194.18 136.68
  A 3.48 2.10 -0.6 0 0 197.64 134.55
  L 197.64 134.17
  A 3.48 2.10 -0.6 0 0 194.14 132.10
  L 192.13 132.12
  A 0.95 0.95 0.0 0 0 191.19 133.08"
/>
<path stroke="#90cd8f" vector-effect="non-scaling-stroke" d="
  M 72.50 162.26
  L 71.12 164.33
  A 0.25 0.25 0.0 0 0 71.19 164.68
  L 71.36 164.79
  A 1.95 1.49 33.6 0 0 73.81 164.62
  L 73.81 164.62
  A 1.95 1.49 33.6 0 0 73.01 162.30
  L 72.84 162.19
  A 0.25 0.25 0.0 0 0 72.50 162.26"
/>
<path stroke="#90cd8f" vector-effect="non-scaling-stroke" d="
  M 86.9985 162.6240
  A 1.10 1.10 0.0 0 0 85.9556 161.4698
  L 84.0580 161.3736
  A 1.10 1.10 0.0 0 0 82.9038 162.4166
  L 82.8815 162.8560
  A 1.10 1.10 0.0 0 0 83.9244 164.0102
  L 85.8220 164.1064
  A 1.10 1.10 0.0 0 0 86.9762 163.0634
  L 86.9985 162.6240"
/>
<path stroke="#90cd8f" vector-effect="non-scaling-stroke" d="
  M 111.50 165.06
  L 113.55 165.02
  A 0.25 0.25 0.0 0 0 113.80 164.77
  L 113.80 164.62
  A 2.48 1.27 89.0 0 0 112.48 162.16
  L 112.46 162.16
  A 2.48 1.27 89.0 0 0 111.24 164.66
  L 111.24 164.81
  A 0.25 0.25 0.0 0 0 111.50 165.06"
/>
<path stroke="#90cd8f" vector-effect="non-scaling-stroke" d="
  M 127.1200 162.8027
  A 2.26 1.42 5.4 0 0 125.0036 161.1763
  A 2.26 1.42 5.4 0 0 122.6200 162.3773
  A 2.26 1.42 5.4 0 0 124.7364 164.0037
  A 2.26 1.42 5.4 0 0 127.1200 162.8027"
/>
<path stroke="#90cd8f" vector-effect="non-scaling-stroke" d="
  M 127.22 165.38
  A 0.84 0.84 0.0 0 0 126.38 164.54
  L 123.52 164.54
  A 0.84 0.84 0.0 0 0 122.68 165.38
  L 122.68 165.96
  A 0.84 0.84 0.0 0 0 123.52 166.80
  L 126.38 166.80
  A 0.84 0.84 0.0 0 0 127.22 165.96
  L 127.22 165.38"
/>
<path stroke="#90cd8f" vector-effect="non-scaling-stroke" d="
  M 139.41 164.05
  A 2.86 2.86 0.0 0 0 136.55 161.19
  A 2.86 2.86 0.0 0 0 133.69 164.05
  A 2.86 2.86 0.0 0 0 136.55 166.91
  A 2.86 2.86 0.0 0 0 139.41 164.05"
/>
<path stroke="#90cd8f" vector-effect="non-scaling-stroke" d="
  M 192.0751 164.2815
  A 2.98 2.83 3.3 0 0 189.2629 161.2847
  A 2.98 2.83 3.3 0 0 186.1249 163.9385
  A 2.98 2.83 3.3 0 0 188.9371 166.9353
  A 2.98 2.83 3.3 0 0 192.0751 164.2815"
/>
<path stroke="#90cd8f" vector-effect="non-scaling-stroke" d="
  M 116.69 175.85
  Q 116.36 174.69 115.49 174.19
  Q 114.98 173.90 114.64 174.38
  Q 114.09 175.15 113.90 176.02
  Q 113.74 176.79 114.52 176.83
  L 115.86 176.89
  Q 117.00 176.94 116.69 175.85"
/>
</g>
<path fill="#ffffff" d="
  M 0.00 0.00
  L 228.00 0.00
  L 228.00 193.00
  L 0.00 193.00
  L 0.00 0.00
  Z
  M 114.48 17.79
  A 0.34 0.34 0.0 0 1 114.13 17.47
  L 113.60 9.13
  A 0.34 0.34 0.0 0 0 113.33 8.82
  L 111.86 8.51
  A 0.34 0.34 0.0 0 0 111.45 8.86
  L 111.96 19.36
  A 0.34 0.34 0.0 0 0 112.32 19.68
  L 120.10 19.29
  A 0.34 0.34 0.0 0 0 120.43 18.95
  L 120.44 17.97
  A 0.34 0.34 0.0 0 0 120.09 17.62
  L 114.48 17.79
  Z
  M 97.77 19.36
  L 102.53 18.42
  A 1.32 1.31 64.7 0 1 103.80 18.88
  Q 104.40 19.63 105.13 20.28
  Q 105.87 20.94 106.62 20.35
  A 0.57 0.56 54.4 0 0 106.74 19.59
  Q 103.17 14.21 99.05 11.08
  A 1.39 1.39 0.0 0 0 96.88 11.77
  Q 95.44 16.39 94.57 21.64
  Q 94.43 22.51 95.29 22.72
  L 95.53 22.77
  Q 96.16 22.92 96.32 22.30
  L 96.86 20.22
  Q 97.05 19.51 97.77 19.36
  Z
  M 144.88 19.95
  C 141.31 20.65 136.40 19.48 138.33 14.64
  C 139.77 11.04 143.71 12.47 146.53 13.22
  Q 146.99 13.34 147.24 12.93
  Q 147.42 12.64 147.14 12.44
  C 143.40 9.81 135.31 9.92 135.66 16.42
  C 135.92 21.18 140.57 23.00 144.71 21.67
  Q 145.51 21.41 145.38 20.59
  L 145.33 20.26
  A 0.38 0.38 0.0 0 0 144.88 19.95
  Z
  M 153.53 21.36
  Q 154.00 20.39 155.01 20.73
  L 159.37 22.16
  A 0.47 0.47 0.0 0 0 159.97 21.85
  L 160.08 21.49
  A 0.76 0.75 -71.1 0 0 159.63 20.56
  L 155.83 19.13
  Q 154.48 18.62 155.13 17.33
  L 155.50 16.59
  Q 156.03 15.54 157.14 15.93
  L 161.91 17.63
  A 0.38 0.36 20.5 0 0 162.37 17.43
  L 162.54 17.03
  A 0.72 0.72 0.0 0 0 162.14 16.07
  L 156.34 13.81
  Q 154.63 13.14 153.97 14.86
  Q 152.42 18.91 151.57 23.16
  A 0.80 0.80 0.0 0 0 151.94 24.00
  Q 154.32 25.45 157.64 26.01
  A 0.71 0.71 0.0 0 0 158.05 24.67
  Q 156.24 23.86 154.02 23.63
  Q 152.50 23.48 153.17 22.09
  L 153.53 21.36
  Z
  M 88.25 22.58
  C 81.33 27.47 76.82 18.25 82.06 16.72
  Q 83.92 16.18 86.09 15.85
  A 0.42 0.41 -14.4 0 0 86.42 15.30
  L 86.30 14.95
  Q 86.07 14.29 85.38 14.28
  Q 82.06 14.22 79.98 15.55
  C 76.79 17.60 76.61 22.15 79.91 24.37
  Q 84.71 27.61 88.86 23.37
  Q 88.97 23.26 89.01 23.12
  Q 89.04 22.99 89.01 22.86
  Q 88.83 22.16 88.25 22.58
  Z
  M 170.66 25.26
  Q 170.90 29.02 171.57 32.82
  Q 171.65 33.29 172.01 33.52
  A 0.75 0.75 0.0 0 0 173.05 33.29
  L 178.35 24.74
  A 0.51 0.51 0.0 0 0 178.31 24.15
  Q 178.07 23.88 177.72 23.79
  Q 176.88 23.58 176.36 24.28
  Q 174.93 26.22 173.96 28.35
  Q 173.06 30.30 172.96 28.16
  Q 172.79 24.51 171.91 20.75
  A 0.91 0.91 0.0 0 0 170.27 20.45
  Q 169.04 22.29 167.47 23.92
  C 166.18 25.26 165.34 26.94 164.32 28.49
  Q 163.98 29.00 164.26 29.56
  Q 164.53 30.09 165.35 30.03
  A 0.75 0.72 -74.5 0 0 165.89 29.71
  L 169.16 24.85
  Q 170.51 22.85 170.66 25.26
  Z
  M 68.9899 21.7248
  A 1.05 1.05 0.0 0 0 67.5267 21.4720
  L 67.4613 21.5181
  A 1.05 1.05 0.0 0 0 67.2086 22.9814
  L 72.6501 30.6952
  A 1.05 1.05 0.0 0 0 74.1133 30.9480
  L 74.1787 30.9019
  A 1.05 1.05 0.0 0 0 74.4314 29.4386
  L 68.9899 21.7248
  Z
  M 65.49 32.12
  C 61.99 25.58 56.06 27.50 51.85 31.98
  Q 51.41 32.46 51.91 32.88
  Q 55.42 35.79 58.12 39.42
  Q 59.04 40.66 60.35 39.86
  C 62.65 38.46 67.12 35.15 65.49 32.12
  Z
  M 186.65 32.05
  A 0.54 0.54 0.0 0 1 186.70 32.95
  Q 183.14 35.62 180.37 39.18
  A 0.61 0.61 0.0 0 0 180.48 40.04
  L 180.74 40.25
  Q 181.50 40.85 182.17 40.15
  L 188.27 33.87
  A 0.87 0.86 37.6 0 1 189.35 33.74
  L 192.21 35.53
  Q 192.76 35.87 193.11 35.34
  L 193.27 35.09
  A 0.52 0.52 0.0 0 0 193.07 34.35
  Q 189.20 32.39 186.01 29.35
  A 1.23 1.22 52.0 0 0 184.56 29.17
  L 184.33 29.30
  Q 183.95 29.52 184.21 29.87
  Q 185.24 31.23 186.65 32.05
  Z
  M 44.10 43.70
  Q 43.00 43.09 43.66 42.02
  L 46.08 38.10
  A 0.50 0.49 44.5 0 0 46.07 37.56
  L 45.84 37.21
  Q 45.61 36.86 45.35 37.19
  L 41.24 42.36
  A 0.86 0.86 0.0 0 0 41.48 43.63
  Q 44.60 45.47 47.49 48.61
  A 1.89 1.89 0.0 0 0 50.24 48.64
  L 54.10 44.64
  Q 54.26 44.48 54.22 44.25
  Q 54.19 44.10 54.07 44.02
  Q 53.61 43.70 53.11 43.96
  Q 51.21 44.96 49.79 46.63
  Q 49.18 47.35 48.43 46.77
  L 47.15 45.80
  Q 46.37 45.20 47.14 44.57
  L 49.51 42.63
  A 1.13 1.12 -35.1 0 0 49.77 41.17
  L 49.54 40.80
  A 0.45 0.44 -37.6 0 0 48.84 40.71
  L 45.82 43.73
  Q 45.23 44.31 44.50 43.91
  L 44.10 43.70
  Z
  M 194.74 45.84
  C 196.19 48.55 194.47 50.28 193.99 52.90
  A 0.49 0.49 0.0 0 0 194.41 53.47
  L 194.67 53.50
  A 0.86 0.84 9.6 0 0 195.59 52.86
  L 196.36 49.69
  A 0.80 0.80 0.0 0 1 197.32 49.10
  Q 199.95 49.74 201.91 47.64
  A 2.34 2.34 0.0 0 0 201.91 44.44
  L 198.40 40.70
  A 1.16 1.16 0.0 0 0 196.63 40.79
  Q 194.21 43.93 190.05 45.44
  Q 189.04 45.81 189.03 46.88
  Q 189.03 47.11 189.20 47.30
  Q 189.92 48.11 190.81 47.49
  L 193.57 45.56
  A 0.81 0.81 0.0 0 1 194.74 45.84
  Z
  M 33.84 58.83
  Q 36.79 58.73 39.82 59.14
  A 1.22 1.22 0.0 0 0 41.02 57.28
  Q 39.98 55.62 38.16 54.00
  A 0.45 0.44 39.7 0 1 38.10 53.39
  L 38.25 53.18
  Q 38.31 53.10 38.40 53.15
  Q 41.20 54.99 44.32 55.72
  A 0.45 0.45 0.0 0 0 44.87 55.26
  Q 44.84 54.52 44.17 54.15
  Q 39.62 51.64 35.42 49.41
  A 0.89 0.88 -50.0 0 0 34.47 49.50
  Q 33.81 50.02 34.06 50.55
  Q 35.73 53.98 38.24 56.42
  Q 39.04 57.20 37.92 57.16
  Q 33.75 57.01 29.59 57.07
  Q 28.88 57.08 28.70 57.84
  A 1.13 1.11 -69.7 0 0 29.26 59.08
  L 39.10 64.31
  A 0.64 0.64 0.0 0 0 39.94 64.09
  L 40.12 63.81
  Q 40.62 63.02 39.80 62.58
  L 33.73 59.30
  Q 32.92 58.86 33.84 58.83
  Z
  M 206.84 55.67
  Q 208.64 54.87 209.61 56.60
  Q 210.48 58.16 211.47 59.44
  Q 211.89 59.98 212.48 59.61
  A 0.71 0.70 -26.8 0 0 212.76 58.77
  Q 211.60 55.76 208.88 53.71
  Q 208.49 53.42 208.05 53.62
  Q 204.79 55.07 201.30 56.11
  Q 199.91 56.53 198.67 57.43
  A 1.31 1.30 56.0 0 0 198.34 59.17
  L 201.58 64.33
  Q 201.96 64.94 202.59 64.60
  L 202.94 64.41
  A 0.43 0.42 -28.9 0 0 203.12 63.82
  L 200.92 59.87
  Q 200.24 58.66 201.49 58.05
  L 202.40 57.61
  Q 203.70 56.98 204.38 58.27
  Q 205.28 60.00 206.43 61.51
  Q 206.86 62.08 207.50 61.78
  Q 208.09 61.51 207.84 60.90
  Q 207.15 59.23 206.00 57.72
  Q 205.06 56.47 206.49 55.83
  L 206.84 55.67
  Z
  M 113.49 84.45
  Q 113.35 89.46 113.51 94.67
  Q 113.59 97.32 116.30 97.64
  Q 120.20 98.09 124.41 97.71
  Q 127.26 97.46 127.38 94.48
  Q 127.60 89.50 127.32 84.68
  A 0.88 0.88 0.0 0 1 128.25 83.75
  Q 134.50 84.06 139.45 83.70
  C 143.39 83.42 142.64 77.51 142.36 75.02
  Q 142.04 72.05 139.15 72.01
  Q 133.75 71.92 128.23 71.99
  A 0.90 0.89 1.5 0 1 127.32 71.04
  Q 127.70 65.62 127.21 60.68
  Q 126.94 57.97 124.22 57.97
  L 116.73 57.96
  A 3.30 3.30 0.0 0 0 113.43 61.28
  L 113.50 71.31
  Q 113.50 71.93 112.88 71.93
  L 101.28 71.98
  A 2.69 2.68 -83.7 0 0 98.66 74.08
  C 98.07 76.75 97.22 83.63 101.69 83.75
  Q 107.24 83.90 112.84 83.79
  Q 113.51 83.78 113.49 84.45
  Z
  M 82.21 100.65
  Q 86.63 103.14 91.05 105.64
  Q 99.40 110.36 107.91 110.97
  Q 111.35 111.21 108.76 108.95
  C 103.93 104.73 99.21 99.67 96.65 93.76
  Q 91.14 81.06 91.47 67.27
  Q 91.56 63.59 89.93 66.88
  Q 88.29 70.20 86.99 73.43
  C 85.50 77.11 80.50 79.43 77.11 80.81
  C 71.73 83.00 66.96 82.16 61.83 79.89
  Q 60.31 79.21 61.20 80.62
  Q 67.98 91.47 77.75 97.93
  Q 79.81 99.29 82.21 100.65
  Z
  M 156.34 76.76
  C 152.78 74.03 152.43 69.49 150.36 66.00
  Q 149.26 64.14 149.32 66.30
  Q 149.61 77.30 146.16 87.97
  C 143.20 97.16 138.35 103.47 131.04 109.43
  A 0.82 0.82 0.0 0 0 131.01 110.68
  Q 131.38 111.00 131.86 110.98
  Q 139.13 110.59 146.71 107.19
  C 150.86 105.33 154.33 102.61 158.26 100.70
  Q 170.24 94.88 179.76 80.44
  Q 180.39 79.49 179.31 79.84
  Q 176.84 80.63 174.25 81.49
  C 168.24 83.50 161.11 80.43 156.34 76.76
  Z
  M 81.99 71.93
  A 6.15 6.15 0.0 0 0 75.84 65.78
  L 72.18 65.78
  A 6.15 6.15 0.0 0 0 66.03 71.93
  L 66.03 73.17
  A 6.15 6.15 0.0 0 0 72.18 79.32
  L 75.84 79.32
  A 6.15 6.15 0.0 0 0 81.99 73.17
  L 81.99 71.93
  Z
  M 174.5441 72.1254
  A 6.11 6.11 0.0 0 0 168.5961 65.8576
  L 165.1373 65.7670
  A 6.11 6.11 0.0 0 0 158.8694 71.7150
  L 158.8359 72.9946
  A 6.11 6.11 0.0 0 0 164.7839 79.2624
  L 168.2427 79.3530
  A 6.11 6.11 0.0 0 0 174.5106 73.4050
  L 174.5441 72.1254
  Z
  M 210.42 68.70
  A 1.22 1.22 0.0 0 0 209.20 67.48
  A 1.22 1.22 0.0 0 0 207.98 68.70
  A 1.22 1.22 0.0 0 0 209.20 69.92
  A 1.22 1.22 0.0 0 0 210.42 68.70
  Z
  M 33.0248 68.6103
  A 1.32 1.12 -8.7 0 0 31.5506 67.7029
  A 1.32 1.12 -8.7 0 0 30.4152 69.0097
  A 1.32 1.12 -8.7 0 0 31.8894 69.9171
  A 1.32 1.12 -8.7 0 0 33.0248 68.6103
  Z
  M 29.58 135.36
  Q 31.33 137.91 32.85 140.83
  Q 33.42 141.93 34.41 142.30
  A 1.88 1.88 0.0 0 0 36.69 141.47
  L 40.45 134.91
  Q 40.95 134.02 40.95 135.04
  L 40.96 143.26
  Q 40.96 144.32 42.01 144.27
  L 42.46 144.26
  Q 43.67 144.21 43.69 142.99
  Q 43.76 137.22 43.60 131.45
  Q 43.56 130.13 42.51 129.85
  A 1.07 1.07 0.0 0 0 41.44 130.16
  Q 37.89 134.00 35.71 138.62
  A 0.78 0.78 0.0 0 1 34.30 138.62
  Q 31.96 133.58 28.54 130.17
  A 1.31 1.31 0.0 0 0 26.31 131.10
  L 26.30 143.42
  A 0.85 0.85 0.0 0 0 27.16 144.27
  L 28.33 144.25
  Q 29.14 144.23 29.14 143.42
  L 29.07 135.52
  Q 29.06 134.60 29.58 135.36
  Z
  M 82.80 135.09
  L 82.82 131.05
  Q 82.83 129.88 81.66 129.96
  Q 81.49 129.98 81.32 129.98
  Q 79.79 129.99 79.79 131.52
  L 79.75 143.27
  A 1.01 1.01 0.0 0 0 80.77 144.28
  L 81.87 144.26
  A 0.89 0.89 0.0 0 0 82.75 143.39
  L 82.87 139.04
  Q 82.90 138.22 83.71 138.22
  L 89.97 138.23
  Q 90.97 138.23 90.96 139.22
  L 90.93 143.22
  Q 90.92 144.28 91.97 144.27
  L 92.58 144.27
  Q 93.93 144.26 93.92 142.92
  L 93.89 131.20
  Q 93.89 130.23 92.98 129.89
  Q 92.56 129.73 92.14 129.85
  Q 90.87 130.20 90.89 131.52
  L 90.96 134.95
  Q 90.98 135.87 90.05 135.87
  L 83.59 135.88
  Q 82.80 135.89 82.80 135.09
  Z
  M 173.24 142.00
  A 1.10 1.09 -76.0 0 1 174.23 141.40
  L 180.66 141.43
  Q 181.22 141.43 181.59 141.85
  C 182.53 142.90 183.61 144.76 185.25 144.16
  A 0.57 0.57 0.0 0 0 185.56 143.35
  Q 182.95 138.48 180.62 133.81
  Q 179.71 132.00 178.08 130.32
  A 1.39 1.39 0.0 0 0 176.00 130.41
  C 175.01 131.63 174.16 132.92 173.76 134.45
  Q 172.50 139.27 169.95 143.12
  Q 169.43 143.90 170.34 144.09
  L 171.11 144.25
  A 1.16 1.15 -70.0 0 0 172.38 143.65
  L 173.24 142.00
  Z
  M 62.7292 137.2985
  A 8.49 7.31 0.8 0 0 54.3421 129.8707
  A 8.49 7.31 0.8 0 0 45.7508 137.0615
  A 8.49 7.31 0.8 0 0 54.1379 144.4893
  A 8.49 7.31 0.8 0 0 62.7292 137.2985
  Z
  M 71.99 132.64
  A 0.43 0.43 0.0 0 1 72.42 132.21
  L 77.56 132.24
  A 0.43 0.43 0.0 0 0 77.99 131.77
  L 77.87 130.48
  A 0.43 0.43 0.0 0 0 77.44 130.09
  L 64.23 130.19
  A 0.43 0.43 0.0 0 0 63.80 130.65
  L 63.87 131.74
  A 0.43 0.43 0.0 0 0 64.29 132.14
  L 68.41 132.27
  A 0.43 0.43 0.0 0 1 68.82 132.69
  L 68.88 143.70
  A 0.43 0.43 0.0 0 0 69.30 144.13
  L 71.41 144.18
  A 0.43 0.43 0.0 0 0 71.86 143.75
  L 71.99 132.64
  Z
  M 100.69 138.47
  A 0.35 0.35 0.0 0 1 101.04 138.13
  L 108.35 138.09
  A 0.35 0.35 0.0 0 0 108.70 137.73
  L 108.67 136.29
  A 0.35 0.35 0.0 0 0 108.32 135.95
  L 101.01 135.95
  A 0.35 0.35 0.0 0 1 100.66 135.61
  L 100.60 132.53
  A 0.35 0.35 0.0 0 1 100.95 132.17
  L 108.73 132.20
  A 0.35 0.35 0.0 0 0 109.08 131.85
  L 109.08 130.42
  A 0.35 0.35 0.0 0 0 108.73 130.07
  L 98.16 130.22
  A 0.35 0.35 0.0 0 0 97.82 130.56
  L 97.78 143.75
  A 0.35 0.35 0.0 0 0 98.13 144.10
  L 108.76 144.20
  A 0.35 0.35 0.0 0 0 109.11 143.81
  L 109.01 142.77
  A 0.35 0.35 0.0 0 0 108.66 142.45
  L 100.98 142.42
  A 0.35 0.35 0.0 0 1 100.64 142.07
  L 100.69 138.47
  Z
  M 122.03 138.11
  Q 124.56 137.05 124.84 134.48
  C 125.41 129.11 115.44 129.93 112.49 130.15
  A 1.07 1.07 0.0 0 0 111.50 131.22
  L 111.50 142.88
  Q 111.50 144.53 113.13 144.33
  L 113.43 144.30
  Q 114.51 144.17 114.52 143.07
  L 114.54 139.44
  Q 114.55 138.67 115.31 138.72
  L 118.12 138.87
  Q 118.75 138.91 119.09 139.44
  Q 119.73 140.45 120.50 141.40
  A 16.19 1.20 50.2 0 1 121.86 143.11
  Q 123.28 144.94 124.77 143.95
  A 0.69 0.69 0.0 0 0 124.94 142.96
  L 121.83 138.86
  Q 121.44 138.35 122.03 138.11
  Z
  M 136.61 141.75
  C 134.48 143.19 131.13 142.48 128.66 141.73
  A 0.60 0.59 24.1 0 0 127.97 141.99
  Q 127.82 142.26 127.93 142.55
  Q 128.07 142.89 128.38 143.06
  C 131.51 144.85 136.09 144.88 139.09 142.54
  C 141.40 140.75 139.38 137.67 137.21 136.96
  Q 134.59 136.12 131.47 135.57
  A 1.42 1.41 -80.6 0 1 130.32 133.96
  C 130.77 130.97 136.87 132.33 138.58 132.73
  Q 139.13 132.86 139.22 132.30
  Q 139.35 131.46 138.59 131.09
  C 135.54 129.61 131.80 129.29 129.09 131.70
  C 126.75 133.78 128.35 137.02 130.87 137.84
  Q 133.46 138.68 136.18 139.35
  A 1.33 1.33 0.0 0 1 136.61 141.75
  Z
  M 144.84 130.23
  L 142.84 130.14
  A 0.51 0.51 0.0 0 0 142.31 130.63
  L 142.30 130.87
  A 4.91 1.35 -87.5 0 0 143.44 135.83
  L 143.76 135.84
  A 4.91 1.35 -87.5 0 0 145.32 131.00
  L 145.33 130.76
  A 0.51 0.51 0.0 0 0 144.84 130.23
  Z
  M 157.26 139.26
  C 155.28 131.18 162.25 131.62 167.41 132.86
  A 0.37 0.37 0.0 0 0 167.87 132.45
  L 167.82 132.08
  Q 167.70 131.16 166.83 130.84
  C 160.24 128.34 151.75 131.16 154.12 139.87
  C 155.55 145.15 163.90 144.86 167.66 143.03
  A 0.49 0.48 75.7 0 0 167.93 142.56
  L 167.91 142.26
  Q 167.85 141.56 167.18 141.74
  C 164.09 142.55 158.32 143.55 157.26 139.26
  Z
  M 197.91 138.07
  Q 198.44 137.84 198.88 137.44
  C 202.15 134.40 200.18 130.79 196.42 130.31
  Q 193.04 129.87 189.50 130.10
  A 1.41 1.40 88.3 0 0 188.18 131.51
  L 188.22 142.95
  Q 188.22 144.44 189.70 144.32
  L 190.28 144.27
  Q 191.25 144.19 191.24 143.22
  L 191.19 139.50
  Q 191.18 138.89 191.79 138.78
  Q 193.24 138.52 194.58 138.90
  Q 195.15 139.06 195.36 139.61
  Q 196.14 141.61 197.58 143.31
  A 2.62 2.60 67.3 0 0 199.78 144.22
  Q 199.94 144.21 200.10 144.17
  Q 201.31 143.84 200.56 142.85
  L 197.66 139.02
  Q 197.18 138.38 197.91 138.07
  Z
  M 206.92 138.48
  A 0.31 0.31 0.0 0 1 207.23 138.18
  L 214.69 138.12
  A 0.31 0.31 0.0 0 0 215.00 137.84
  L 215.15 136.37
  A 0.31 0.31 0.0 0 0 214.84 136.02
  L 207.16 135.90
  A 0.31 0.31 0.0 0 1 206.86 135.60
  L 206.83 132.57
  A 0.31 0.31 0.0 0 1 207.14 132.26
  L 215.07 132.20
  A 0.31 0.31 0.0 0 0 215.38 131.93
  L 215.55 130.58
  A 0.31 0.31 0.0 0 0 215.25 130.23
  L 204.32 130.09
  A 0.31 0.31 0.0 0 0 204.00 130.41
  L 204.12 143.87
  A 0.31 0.31 0.0 0 0 204.43 144.18
  L 215.31 144.13
  A 0.31 0.31 0.0 0 0 215.62 143.78
  L 215.49 142.79
  A 0.31 0.31 0.0 0 0 215.19 142.52
  L 207.16 142.40
  A 0.31 0.31 0.0 0 1 206.86 142.09
  L 206.92 138.48
  Z
  M 206.97 151.58
  A 0.52 0.52 0.0 0 0 206.45 151.06
  L 34.07 151.06
  A 0.52 0.52 0.0 0 0 33.55 151.58
  L 33.55 151.98
  A 0.52 0.52 0.0 0 0 34.07 152.50
  L 206.45 152.50
  A 0.52 0.52 0.0 0 0 206.97 151.98
  L 206.97 151.58
  Z
  M 30.73 163.16
  L 32.70 167.31
  A 0.73 0.73 0.0 0 0 34.01 167.31
  L 37.01 161.11
  A 0.45 0.44 27.8 0 0 36.82 160.52
  L 36.54 160.37
  A 0.55 0.54 24.7 0 0 35.77 160.65
  L 34.09 165.03
  A 0.74 0.74 0.0 0 1 32.73 165.07
  Q 32.00 163.48 31.34 161.69
  Q 30.28 158.83 29.38 161.75
  Q 28.77 163.73 27.57 165.43
  A 0.55 0.54 -37.2 0 1 26.61 165.30
  L 25.09 160.86
  Q 24.91 160.35 24.40 160.54
  L 24.11 160.65
  A 0.34 0.33 68.7 0 0 23.92 161.09
  L 26.51 167.21
  Q 27.16 168.74 27.90 167.25
  L 29.94 163.15
  Q 30.34 162.35 30.73 163.16
  Z
  M 43.52 164.46
  L 45.49 164.76
  Q 45.82 164.81 45.87 164.48
  L 45.92 164.16
  Q 45.96 163.90 45.71 163.89
  L 43.68 163.78
  A 0.96 0.95 87.8 0 1 42.78 162.94
  L 42.73 162.50
  Q 42.60 161.35 43.75 161.38
  L 46.33 161.46
  Q 46.69 161.47 46.69 161.11
  L 46.69 160.76
  Q 46.69 160.56 46.49 160.52
  Q 44.49 160.15 42.36 160.63
  Q 41.80 160.75 41.79 161.33
  L 41.71 166.95
  Q 41.70 167.52 42.26 167.60
  Q 44.21 167.89 46.24 167.71
  Q 46.46 167.69 46.59 167.53
  Q 46.70 167.39 46.62 167.19
  Q 46.44 166.79 46.01 166.79
  L 43.86 166.76
  Q 43.15 166.76 42.92 166.08
  Q 42.73 165.53 42.85 164.93
  Q 42.96 164.37 43.52 164.46
  Z
  M 60.77 161.72
  Q 62.44 161.09 64.63 161.95
  Q 64.96 162.08 65.10 161.75
  L 65.22 161.48
  Q 65.30 161.29 65.12 161.20
  C 62.13 159.63 57.65 160.05 57.80 164.36
  C 57.92 167.79 62.24 168.27 64.80 167.27
  Q 65.13 167.14 64.99 166.82
  L 64.88 166.58
  A 0.47 0.47 0.0 0 0 64.28 166.33
  Q 61.45 167.38 59.87 165.75
  A 2.47 2.47 0.0 0 1 60.77 161.72
  Z
  M 70.96 165.75
  L 74.30 165.74
  A 0.97 0.96 83.6 0 1 75.24 166.50
  Q 75.35 167.00 75.75 167.23
  Q 78.04 168.53 76.62 166.30
  Q 74.88 163.57 73.60 160.89
  A 0.93 0.93 0.0 0 0 71.96 160.82
  Q 70.37 163.55 68.57 166.51
  Q 68.30 166.95 68.33 167.45
  Q 68.38 168.37 69.05 167.74
  Q 69.63 167.19 69.91 166.47
  A 1.13 1.13 0.0 0 1 70.96 165.75
  Z
  M 83.81 164.44
  C 86.48 164.84 86.09 165.85 87.34 167.67
  Q 87.41 167.77 87.54 167.78
  Q 87.71 167.80 87.81 167.70
  Q 88.07 167.43 87.91 167.10
  Q 86.86 164.98 87.76 163.00
  A 1.78 1.77 -72.5 0 0 86.48 160.53
  Q 84.48 160.14 82.45 160.46
  Q 81.75 160.56 81.75 161.27
  L 81.75 167.20
  A 0.60 0.60 0.0 0 0 82.41 167.80
  L 82.73 167.76
  A 0.62 0.62 0.0 0 0 83.27 166.98
  Q 83.00 166.01 83.07 165.04
  Q 83.12 164.34 83.81 164.44
  Z
  M 93.72 162.18
  A 0.93 0.92 -84.9 0 1 94.81 161.26
  Q 96.54 161.60 98.24 161.32
  Q 98.50 161.28 98.47 161.02
  L 98.44 160.76
  Q 98.40 160.36 97.99 160.36
  L 93.70 160.34
  Q 92.48 160.33 92.49 161.55
  L 92.53 166.42
  Q 92.54 167.80 93.92 167.78
  L 97.94 167.73
  Q 98.42 167.73 98.40 167.25
  L 98.38 166.90
  Q 98.38 166.82 98.30 166.82
  L 94.73 166.75
  A 1.02 1.01 -89.4 0 1 93.74 165.73
  L 93.74 165.31
  Q 93.74 164.36 94.69 164.49
  L 97.49 164.89
  Q 97.70 164.92 97.71 164.71
  L 97.71 164.33
  Q 97.71 164.15 97.53 164.13
  L 94.73 163.82
  Q 93.75 163.71 93.73 162.73
  L 93.72 162.18
  Z
  M 115.07 166.25
  L 116.39 167.84
  A 0.19 0.19 0.0 0 0 116.67 167.85
  L 116.85 167.65
  A 0.59 0.58 51.4 0 0 116.92 166.97
  L 113.33 160.83
  A 0.91 0.90 47.5 0 0 111.81 160.76
  Q 110.07 163.24 109.12 167.14
  Q 108.92 167.98 109.55 167.40
  Q 109.97 167.03 110.09 166.46
  A 0.88 0.87 6.1 0 1 110.95 165.78
  L 114.07 165.78
  A 1.30 1.30 0.0 0 1 115.07 166.25
  Z
  M 121.52 161.16
  L 121.73 167.18
  A 0.71 0.71 0.0 0 0 122.46 167.86
  L 126.08 167.74
  A 2.59 2.01 -2.0 0 0 128.60 165.64
  L 128.48 162.22
  A 2.59 2.01 -2.0 0 0 125.82 160.30
  L 122.20 160.43
  A 0.71 0.71 0.0 0 0 121.52 161.16
  Z
  M 140.7925 164.3226
  A 4.26 3.79 3.4 0 0 136.7648 160.2867
  A 4.26 3.79 3.4 0 0 132.2875 163.8174
  A 4.26 3.79 3.4 0 0 136.3152 167.8533
  A 4.26 3.79 3.4 0 0 140.7925 164.3226
  Z
  M 160.05 162.09
  Q 159.52 164.69 160.00 167.69
  Q 160.04 167.95 160.30 167.94
  L 160.63 167.92
  Q 161.08 167.90 161.09 167.45
  L 161.23 162.19
  Q 161.25 161.62 161.82 161.54
  L 164.25 161.21
  Q 164.43 161.19 164.43 161.00
  L 164.42 160.67
  A 0.48 0.48 0.0 0 0 163.87 160.21
  Q 160.44 160.72 157.24 160.22
  Q 156.80 160.15 156.77 160.60
  L 156.74 160.96
  Q 156.72 161.26 157.02 161.33
  Q 158.22 161.60 159.48 161.46
  Q 160.19 161.39 160.05 162.09
  Z
  M 176.56 163.22
  L 174.50 160.29
  Q 174.44 160.22 174.37 160.27
  L 174.12 160.43
  A 0.53 0.53 0.0 0 0 173.91 161.09
  Q 174.72 162.96 176.12 164.27
  Q 176.55 164.68 176.54 165.27
  L 176.49 167.55
  Q 176.47 168.15 177.05 167.98
  L 177.40 167.87
  A 0.52 0.52 0.0 0 0 177.77 167.26
  C 176.96 163.35 179.93 163.64 180.59 160.92
  Q 180.87 159.74 179.90 160.46
  Q 178.57 161.44 177.69 163.14
  Q 177.19 164.12 176.56 163.22
  Z
  M 193.33 164.06
  A 4.21 3.79 0.0 0 0 189.12 160.27
  A 4.21 3.79 0.0 0 0 184.91 164.06
  A 4.21 3.79 0.0 0 0 189.12 167.85
  A 4.21 3.79 0.0 0 0 193.33 164.06
  Z
  M 200.60 166.82
  Q 198.84 166.43 198.72 164.64
  Q 198.60 163.01 198.94 161.32
  Q 199.08 160.57 198.32 160.52
  L 198.00 160.50
  Q 197.22 160.45 197.30 161.23
  C 197.51 163.29 196.88 167.36 199.88 167.72
  C 205.28 168.37 205.36 164.96 204.92 160.87
  Q 204.85 160.19 204.17 160.30
  L 203.82 160.35
  A 0.30 0.30 0.0 0 0 203.57 160.66
  L 203.74 163.97
  Q 203.87 166.58 201.28 166.86
  Q 200.93 166.90 200.60 166.82
  Z
  M 211.51 163.43
  Q 210.77 162.01 212.20 161.46
  Q 213.82 160.83 215.17 161.92
  Q 215.73 162.37 215.64 163.07
  Q 215.54 163.81 214.91 164.09
  C 214.08 164.46 213.26 164.03 212.39 164.25
  Q 211.63 164.44 212.40 164.58
  L 213.77 164.83
  Q 214.35 164.94 214.63 165.46
  L 215.79 167.64
  Q 215.87 167.79 216.02 167.72
  L 216.27 167.61
  Q 216.63 167.44 216.46 167.09
  Q 215.56 165.21 216.41 163.35
  A 2.14 2.14 0.0 0 0 214.43 160.31
  L 210.84 160.38
  A 0.65 0.65 0.0 0 0 210.20 161.03
  L 210.14 167.25
  A 0.64 0.63 -88.1 0 0 210.73 167.89
  L 211.06 167.91
  Q 211.66 167.96 211.55 167.37
  Q 211.30 165.97 211.65 164.64
  Q 211.82 164.01 211.51 163.43
  Z
  M 149.82 166.89
  C 146.22 166.67 147.33 163.13 147.21 160.85
  Q 147.20 160.61 146.97 160.56
  L 146.50 160.45
  A 0.45 0.45 0.0 0 0 145.96 160.82
  Q 145.56 163.57 146.22 166.02
  A 1.50 1.50 0.0 0 0 146.83 166.89
  Q 148.64 168.11 151.03 167.76
  Q 151.69 167.67 152.01 167.09
  C 153.02 165.28 152.77 162.84 152.75 160.83
  Q 152.75 160.54 152.45 160.56
  L 152.09 160.59
  Q 151.81 160.61 151.85 160.89
  Q 152.21 163.58 151.59 165.66
  Q 151.19 166.98 149.82 166.89
  Z
  M 89.3339 179.9484
  A 4.08 0.72 88.4 0 0 89.9397 175.8499
  A 4.08 0.72 88.4 0 0 89.1061 171.7916
  A 4.08 0.72 88.4 0 0 88.5003 175.8901
  A 4.08 0.72 88.4 0 0 89.3339 179.9484
  Z
  M 95.16 176.45
  L 95.00 179.18
  A 0.40 0.40 0.0 0 0 95.43 179.61
  L 95.83 179.59
  A 0.63 0.62 88.5 0 0 96.41 178.97
  L 96.45 172.76
  Q 96.45 172.12 95.81 172.05
  L 95.49 172.01
  A 0.35 0.34 -87.1 0 0 95.11 172.36
  L 95.14 174.82
  Q 95.15 175.56 94.42 175.45
  Q 92.53 175.20 90.88 175.45
  Q 90.10 175.57 90.85 175.80
  Q 92.48 176.30 94.31 175.78
  A 0.67 0.66 -6.6 0 1 95.16 176.45
  Z
  M 103.35 173.12
  Q 104.99 172.89 106.70 173.29
  A 0.42 0.41 16.2 0 0 107.19 173.03
  L 107.27 172.79
  A 0.37 0.37 0.0 0 0 107.01 172.32
  Q 104.78 171.78 102.34 172.27
  Q 101.73 172.39 101.72 173.02
  L 101.62 178.23
  A 1.48 1.47 0.6 0 0 103.10 179.73
  L 106.95 179.71
  Q 107.44 179.71 107.41 179.23
  L 107.39 178.87
  A 0.53 0.53 0.0 0 0 106.76 178.38
  L 104.32 178.84
  A 1.42 1.42 0.0 0 1 102.63 177.52
  Q 102.59 176.71 102.97 176.03
  Q 103.19 175.66 103.00 175.27
  Q 102.65 174.55 102.74 173.75
  A 0.72 0.71 -1.1 0 1 103.35 173.12
  Z
  M 125.35 177.68
  Q 125.67 174.98 125.33 172.35
  Q 125.29 172.04 124.98 172.06
  L 124.64 172.08
  Q 124.20 172.11 124.21 172.55
  L 124.26 178.78
  Q 124.27 179.54 125.03 179.58
  L 129.19 179.76
  A 0.57 0.57 0.0 0 0 129.76 179.03
  Q 129.66 178.70 129.37 178.57
  Q 128.75 178.31 128.11 178.50
  Q 127.01 178.82 125.98 178.58
  Q 125.26 178.42 125.35 177.68
  Z
  M 135.53 173.37
  A 0.23 0.23 0.0 0 1 135.74 173.60
  L 135.81 179.62
  A 0.23 0.23 0.0 0 0 136.05 179.85
  L 136.78 179.81
  A 0.23 0.23 0.0 0 0 137.00 179.58
  L 136.97 173.60
  A 0.23 0.23 0.0 0 1 137.19 173.37
  L 140.09 173.26
  A 0.23 0.23 0.0 0 0 140.32 173.01
  L 140.27 172.37
  A 0.23 0.23 0.0 0 0 140.04 172.15
  L 132.76 172.26
  A 0.23 0.23 0.0 0 0 132.56 172.38
  L 132.34 172.80
  A 0.23 0.23 0.0 0 0 132.53 173.14
  L 135.53 173.37
  Z
  M 145.4114 179.8584
  A 3.99 0.76 88.4 0 0 146.0597 175.8488
  A 3.99 0.76 88.4 0 0 145.1886 171.8816
  A 3.99 0.76 88.4 0 0 144.5403 175.8912
  A 3.99 0.76 88.4 0 0 145.4114 179.8584
  Z
  M 150.16 175.76
  A 0.72 0.72 0.0 0 1 151.06 176.44
  L 151.11 179.35
  A 0.36 0.36 0.0 0 0 151.70 179.63
  Q 152.08 179.32 152.13 178.81
  Q 152.46 175.45 151.93 172.21
  Q 151.90 172.04 151.73 172.05
  L 151.39 172.05
  Q 151.05 172.06 151.06 172.40
  L 151.14 174.92
  Q 151.17 175.90 150.25 175.57
  Q 148.80 175.04 147.22 175.41
  Q 146.35 175.62 147.23 175.80
  Q 148.74 176.12 150.16 175.76
  Z
  M 117.61 177.74
  L 118.71 179.53
  A 0.45 0.44 -24.4 0 0 119.24 179.72
  L 119.55 179.61
  A 0.39 0.39 0.0 0 0 119.76 179.05
  L 115.93 172.53
  A 0.82 0.82 0.0 0 0 114.51 172.55
  L 110.86 179.20
  Q 110.80 179.31 110.90 179.39
  L 111.16 179.60
  Q 111.40 179.81 111.60 179.56
  L 112.97 177.88
  A 0.95 0.94 28.1 0 1 113.98 177.58
  Q 115.37 178.00 116.66 177.44
  Q 117.27 177.18 117.61 177.74
  Z
  M 104.16 175.95
  Q 105.63 176.46 106.28 176.21
  Q 107.61 175.71 106.26 175.26
  Q 105.30 174.94 104.14 175.43
  Q 103.47 175.71 104.16 175.95
  Z"
/>
<path fill="#033d68" d="
  M 114.48 17.79
  L 120.09 17.62
  A 0.34 0.34 0.0 0 1 120.44 17.97
  L 120.43 18.95
  A 0.34 0.34 0.0 0 1 120.10 19.29
  L 112.32 19.68
  A 0.34 0.34 0.0 0 1 111.96 19.36
  L 111.45 8.86
  A 0.34 0.34 0.0 0 1 111.86 8.51
  L 113.33 8.82
  A 0.34 0.34 0.0 0 1 113.60 9.13
  L 114.13 17.47
  A 0.34 0.34 0.0 0 0 114.48 17.79
  Z"
/>
<path fill="#033d68" d="
  M 96.86 20.22
  L 96.32 22.30
  Q 96.16 22.92 95.53 22.77
  L 95.29 22.72
  Q 94.43 22.51 94.57 21.64
  Q 95.44 16.39 96.88 11.77
  A 1.39 1.39 0.0 0 1 99.05 11.08
  Q 103.17 14.21 106.74 19.59
  A 0.57 0.56 54.4 0 1 106.62 20.35
  Q 105.87 20.94 105.13 20.28
  Q 104.40 19.63 103.80 18.88
  A 1.32 1.31 64.7 0 0 102.53 18.42
  L 97.77 19.36
  Q 97.05 19.51 96.86 20.22
  Z
  M 98.14 13.36
  C 97.86 14.49 97.47 15.94 97.54 17.12
  Q 97.58 17.72 98.17 17.59
  L 101.56 16.84
  Q 102.23 16.69 101.79 16.16
  L 99.24 13.10
  A 0.64 0.63 -58.2 0 0 98.14 13.36
  Z"
/>
<path fill="#033d68" d="
  M 138.33 14.64
  C 136.40 19.48 141.31 20.65 144.88 19.95
  A 0.38 0.38 0.0 0 1 145.33 20.26
  L 145.38 20.59
  Q 145.51 21.41 144.71 21.67
  C 140.57 23.00 135.92 21.18 135.66 16.42
  C 135.31 9.92 143.40 9.81 147.14 12.44
  Q 147.42 12.64 147.24 12.93
  Q 146.99 13.34 146.53 13.22
  C 143.71 12.47 139.77 11.04 138.33 14.64
  Z"
/>
<path fill="#ffffff" d="
  M 97.54 17.12
  C 97.47 15.94 97.86 14.49 98.14 13.36
  A 0.64 0.63 -58.2 0 1 99.24 13.10
  L 101.79 16.16
  Q 102.23 16.69 101.56 16.84
  L 98.17 17.59
  Q 97.58 17.72 97.54 17.12
  Z"
/>
<path fill="#033d68" d="
  M 153.53 21.36
  L 153.17 22.09
  Q 152.50 23.48 154.02 23.63
  Q 156.24 23.86 158.05 24.67
  A 0.71 0.71 0.0 0 1 157.64 26.01
  Q 154.32 25.45 151.94 24.00
  A 0.80 0.80 0.0 0 1 151.57 23.16
  Q 152.42 18.91 153.97 14.86
  Q 154.63 13.14 156.34 13.81
  L 162.14 16.07
  A 0.72 0.72 0.0 0 1 162.54 17.03
  L 162.37 17.43
  A 0.38 0.36 20.5 0 1 161.91 17.63
  L 157.14 15.93
  Q 156.03 15.54 155.50 16.59
  L 155.13 17.33
  Q 154.48 18.62 155.83 19.13
  L 159.63 20.56
  A 0.76 0.75 -71.1 0 1 160.08 21.49
  L 159.97 21.85
  A 0.47 0.47 0.0 0 1 159.37 22.16
  L 155.01 20.73
  Q 154.00 20.39 153.53 21.36
  Z"
/>
<path fill="#033d68" d="
  M 82.06 16.72
  C 76.82 18.25 81.33 27.47 88.25 22.58
  Q 88.83 22.16 89.01 22.86
  Q 89.04 22.99 89.01 23.12
  Q 88.97 23.26 88.86 23.37
  Q 84.71 27.61 79.91 24.37
  C 76.61 22.15 76.79 17.60 79.98 15.55
  Q 82.06 14.22 85.38 14.28
  Q 86.07 14.29 86.30 14.95
  L 86.42 15.30
  A 0.42 0.41 -14.4 0 1 86.09 15.85
  Q 83.92 16.18 82.06 16.72
  Z"
/>
<path fill="#033d68" d="
  M 170.66 25.26
  Q 170.51 22.85 169.16 24.85
  L 165.89 29.71
  A 0.75 0.72 -74.5 0 1 165.35 30.03
  Q 164.53 30.09 164.26 29.56
  Q 163.98 29.00 164.32 28.49
  C 165.34 26.94 166.18 25.26 167.47 23.92
  Q 169.04 22.29 170.27 20.45
  A 0.91 0.91 0.0 0 1 171.91 20.75
  Q 172.79 24.51 172.96 28.16
  Q 173.06 30.30 173.96 28.35
  Q 174.93 26.22 176.36 24.28
  Q 176.88 23.58 177.72 23.79
  Q 178.07 23.88 178.31 24.15
  A 0.51 0.51 0.0 0 1 178.35 24.74
  L 173.05 33.29
  A 0.75 0.75 0.0 0 1 172.01 33.52
  Q 171.65 33.29 171.57 32.82
  Q 170.90 29.02 170.66 25.26
  Z"
/>
<rect fill="#033d68" x="-1.09" y="-5.77" transform="translate(70.82,26.21) rotate(-35.2)" width="2.18" height="11.54" rx="1.05"/>
<path fill="#033d68" d="
  M 51.85 31.98
  C 56.06 27.50 61.99 25.58 65.49 32.12
  C 67.12 35.15 62.65 38.46 60.35 39.86
  Q 59.04 40.66 58.12 39.42
  Q 55.42 35.79 51.91 32.88
  Q 51.41 32.46 51.85 31.98
  Z
  M 60.52 30.00
  A 1.23 1.23 0.0 0 0 59.24 29.72
  L 55.57 31.05
  A 1.23 1.23 0.0 0 0 55.13 33.09
  L 59.41 37.20
  A 1.23 1.23 0.0 0 0 61.20 37.11
  L 63.42 34.50
  A 1.23 1.23 0.0 0 0 63.36 32.83
  L 60.52 30.00
  Z"
/>
<path fill="#033d68" d="
  M 186.65 32.05
  Q 185.24 31.23 184.21 29.87
  Q 183.95 29.52 184.33 29.30
  L 184.56 29.17
  A 1.23 1.22 52.0 0 1 186.01 29.35
  Q 189.20 32.39 193.07 34.35
  A 0.52 0.52 0.0 0 1 193.27 35.09
  L 193.11 35.34
  Q 192.76 35.87 192.21 35.53
  L 189.35 33.74
  A 0.87 0.86 37.6 0 0 188.27 33.87
  L 182.17 40.15
  Q 181.50 40.85 180.74 40.25
  L 180.48 40.04
  A 0.61 0.61 0.0 0 1 180.37 39.18
  Q 183.14 35.62 186.70 32.95
  A 0.54 0.54 0.0 0 0 186.65 32.05
  Z"
/>
<path fill="#ffffff" d="
  M 60.52 30.00
  L 63.36 32.83
  A 1.23 1.23 0.0 0 1 63.42 34.50
  L 61.20 37.11
  A 1.23 1.23 0.0 0 1 59.41 37.20
  L 55.13 33.09
  A 1.23 1.23 0.0 0 1 55.57 31.05
  L 59.24 29.72
  A 1.23 1.23 0.0 0 1 60.52 30.00
  Z"
/>
<path fill="#033d68" d="
  M 45.82 43.73
  L 48.84 40.71
  A 0.45 0.44 -37.6 0 1 49.54 40.80
  L 49.77 41.17
  A 1.13 1.12 -35.1 0 1 49.51 42.63
  L 47.14 44.57
  Q 46.37 45.20 47.15 45.80
  L 48.43 46.77
  Q 49.18 47.35 49.79 46.63
  Q 51.21 44.96 53.11 43.96
  Q 53.61 43.70 54.07 44.02
  Q 54.19 44.10 54.22 44.25
  Q 54.26 44.48 54.10 44.64
  L 50.24 48.64
  A 1.89 1.89 0.0 0 1 47.49 48.61
  Q 44.60 45.47 41.48 43.63
  A 0.86 0.86 0.0 0 1 41.24 42.36
  L 45.35 37.19
  Q 45.61 36.86 45.84 37.21
  L 46.07 37.56
  A 0.50 0.49 44.5 0 1 46.08 38.10
  L 43.66 42.02
  Q 43.00 43.09 44.10 43.70
  L 44.50 43.91
  Q 45.23 44.31 45.82 43.73
  Z"
/>
<path fill="#033d68" d="
  M 194.74 45.84
  A 0.81 0.81 0.0 0 0 193.57 45.56
  L 190.81 47.49
  Q 189.92 48.11 189.20 47.30
  Q 189.03 47.11 189.03 46.88
  Q 189.04 45.81 190.05 45.44
  Q 194.21 43.93 196.63 40.79
  A 1.16 1.16 0.0 0 1 198.40 40.70
  L 201.91 44.44
  A 2.34 2.34 0.0 0 1 201.91 47.64
  Q 199.95 49.74 197.32 49.10
  A 0.80 0.80 0.0 0 0 196.36 49.69
  L 195.59 52.86
  A 0.86 0.84 9.6 0 1 194.67 53.50
  L 194.41 53.47
  A 0.49 0.49 0.0 0 1 193.99 52.90
  C 194.47 50.28 196.19 48.55 194.74 45.84
  Z
  M 199.9581 46.6173
  A 2.43 1.84 35.1 0 0 199.0280 43.7146
  A 2.43 1.84 35.1 0 0 195.9819 43.8227
  A 2.43 1.84 35.1 0 0 196.9120 46.7254
  A 2.43 1.84 35.1 0 0 199.9581 46.6173
  Z"
/>
<ellipse fill="#ffffff" cx="0.00" cy="0.00" transform="translate(197.97,45.22) rotate(35.1)" rx="2.43" ry="1.84"/>
<path fill="#033d68" d="
  M 33.73 59.30
  L 39.80 62.58
  Q 40.62 63.02 40.12 63.81
  L 39.94 64.09
  A 0.64 0.64 0.0 0 1 39.10 64.31
  L 29.26 59.08
  A 1.13 1.11 -69.7 0 1 28.70 57.84
  Q 28.88 57.08 29.59 57.07
  Q 33.75 57.01 37.92 57.16
  Q 39.04 57.20 38.24 56.42
  Q 35.73 53.98 34.06 50.55
  Q 33.81 50.02 34.47 49.50
  A 0.89 0.88 -50.0 0 1 35.42 49.41
  Q 39.62 51.64 44.17 54.15
  Q 44.84 54.52 44.87 55.26
  A 0.45 0.45 0.0 0 1 44.32 55.72
  Q 41.20 54.99 38.40 53.15
  Q 38.31 53.10 38.25 53.18
  L 38.10 53.39
  A 0.45 0.44 39.7 0 0 38.16 54.00
  Q 39.98 55.62 41.02 57.28
  A 1.22 1.22 0.0 0 1 39.82 59.14
  Q 36.79 58.73 33.84 58.83
  Q 32.92 58.86 33.73 59.30
  Z"
/>
<path fill="#033d68" d="
  M 206.84 55.67
  L 206.49 55.83
  Q 205.06 56.47 206.00 57.72
  Q 207.15 59.23 207.84 60.90
  Q 208.09 61.51 207.50 61.78
  Q 206.86 62.08 206.43 61.51
  Q 205.28 60.00 204.38 58.27
  Q 203.70 56.98 202.40 57.61
  L 201.49 58.05
  Q 200.24 58.66 200.92 59.87
  L 203.12 63.82
  A 0.43 0.42 -28.9 0 1 202.94 64.41
  L 202.59 64.60
  Q 201.96 64.94 201.58 64.33
  L 198.34 59.17
  A 1.31 1.30 56.0 0 1 198.67 57.43
  Q 199.91 56.53 201.30 56.11
  Q 204.79 55.07 208.05 53.62
  Q 208.49 53.42 208.88 53.71
  Q 211.60 55.76 212.76 58.77
  A 0.71 0.70 -26.8 0 1 212.48 59.61
  Q 211.89 59.98 211.47 59.44
  Q 210.48 58.16 209.61 56.60
  Q 208.64 54.87 206.84 55.67
  Z"
/>
<path fill="#43b83f" d="
  M 112.84 83.79
  Q 107.24 83.90 101.69 83.75
  C 97.22 83.63 98.07 76.75 98.66 74.08
  A 2.69 2.68 -83.7 0 1 101.28 71.98
  L 112.88 71.93
  Q 113.50 71.93 113.50 71.31
  L 113.43 61.28
  A 3.30 3.30 0.0 0 1 116.73 57.96
  L 124.22 57.97
  Q 126.94 57.97 127.21 60.68
  Q 127.70 65.62 127.32 71.04
  A 0.90 0.89 1.5 0 0 128.23 71.99
  Q 133.75 71.92 139.15 72.01
  Q 142.04 72.05 142.36 75.02
  C 142.64 77.51 143.39 83.42 139.45 83.70
  Q 134.50 84.06 128.25 83.75
  A 0.88 0.88 0.0 0 0 127.32 84.68
  Q 127.60 89.50 127.38 94.48
  Q 127.26 97.46 124.41 97.71
  Q 120.20 98.09 116.30 97.64
  Q 113.59 97.32 113.51 94.67
  Q 113.35 89.46 113.49 84.45
  Q 113.51 83.78 112.84 83.79
  Z"
/>
<path fill="#1382cc" d="
  M 82.21 100.65
  Q 79.81 99.29 77.75 97.93
  Q 67.98 91.47 61.20 80.62
  Q 60.31 79.21 61.83 79.89
  C 66.96 82.16 71.73 83.00 77.11 80.81
  C 80.50 79.43 85.50 77.11 86.99 73.43
  Q 88.29 70.20 89.93 66.88
  Q 91.56 63.59 91.47 67.27
  Q 91.14 81.06 96.65 93.76
  C 99.21 99.67 103.93 104.73 108.76 108.95
  Q 111.35 111.21 107.91 110.97
  Q 99.40 110.36 91.05 105.64
  Q 86.63 103.14 82.21 100.65
  Z"
/>
<path fill="#1382cc" d="
  M 150.36 66.00
  C 152.43 69.49 152.78 74.03 156.34 76.76
  C 161.11 80.43 168.24 83.50 174.25 81.49
  Q 176.84 80.63 179.31 79.84
  Q 180.39 79.49 179.76 80.44
  Q 170.24 94.88 158.26 100.70
  C 154.33 102.61 150.86 105.33 146.71 107.19
  Q 139.13 110.59 131.86 110.98
  Q 131.38 111.00 131.01 110.68
  A 0.82 0.82 0.0 0 1 131.04 109.43
  C 138.35 103.47 143.20 97.16 146.16 87.97
  Q 149.61 77.30 149.32 66.30
  Q 149.26 64.14 150.36 66.00
  Z"
/>
<rect fill="#1382cc" x="66.03" y="65.78" width="15.96" height="13.54" rx="6.15"/>
<rect fill="#1382cc" x="-7.84" y="-6.75" transform="translate(166.69,72.56) rotate(1.5)" width="15.68" height="13.50" rx="6.11"/>
<circle fill="#033d68" cx="209.20" cy="68.70" r="1.22"/>
<ellipse fill="#033d68" cx="0.00" cy="0.00" transform="translate(31.72,68.81) rotate(-8.7)" rx="1.32" ry="1.12"/>
<path fill="#033d68" d="
  M 29.07 135.52
  L 29.14 143.42
  Q 29.14 144.23 28.33 144.25
  L 27.16 144.27
  A 0.85 0.85 0.0 0 1 26.30 143.42
  L 26.31 131.10
  A 1.31 1.31 0.0 0 1 28.54 130.17
  Q 31.96 133.58 34.30 138.62
  A 0.78 0.78 0.0 0 0 35.71 138.62
  Q 37.89 134.00 41.44 130.16
  A 1.07 1.07 0.0 0 1 42.51 129.85
  Q 43.56 130.13 43.60 131.45
  Q 43.76 137.22 43.69 142.99
  Q 43.67 144.21 42.46 144.26
  L 42.01 144.27
  Q 40.96 144.32 40.96 143.26
  L 40.95 135.04
  Q 40.95 134.02 40.45 134.91
  L 36.69 141.47
  A 1.88 1.88 0.0 0 1 34.41 142.30
  Q 33.42 141.93 32.85 140.83
  Q 31.33 137.91 29.58 135.36
  Q 29.06 134.60 29.07 135.52
  Z"
/>
<path fill="#033d68" d="
  M 82.80 135.09
  Q 82.80 135.89 83.59 135.88
  L 90.05 135.87
  Q 90.98 135.87 90.96 134.95
  L 90.89 131.52
  Q 90.87 130.20 92.14 129.85
  Q 92.56 129.73 92.98 129.89
  Q 93.89 130.23 93.89 131.20
  L 93.92 142.92
  Q 93.93 144.26 92.58 144.27
  L 91.97 144.27
  Q 90.92 144.28 90.93 143.22
  L 90.96 139.22
  Q 90.97 138.23 89.97 138.23
  L 83.71 138.22
  Q 82.90 138.22 82.87 139.04
  L 82.75 143.39
  A 0.89 0.89 0.0 0 1 81.87 144.26
  L 80.77 144.28
  A 1.01 1.01 0.0 0 1 79.75 143.27
  L 79.79 131.52
  Q 79.79 129.99 81.32 129.98
  Q 81.49 129.98 81.66 129.96
  Q 82.83 129.88 82.82 131.05
  L 82.80 135.09
  Z"
/>
<path fill="#033d68" d="
  M 173.24 142.00
  L 172.38 143.65
  A 1.16 1.15 -70.0 0 1 171.11 144.25
  L 170.34 144.09
  Q 169.43 143.90 169.95 143.12
  Q 172.50 139.27 173.76 134.45
  C 174.16 132.92 175.01 131.63 176.00 130.41
  A 1.39 1.39 0.0 0 1 178.08 130.32
  Q 179.71 132.00 180.62 133.81
  Q 182.95 138.48 185.56 143.35
  A 0.57 0.57 0.0 0 1 185.25 144.16
  C 183.61 144.76 182.53 142.90 181.59 141.85
  Q 181.22 141.43 180.66 141.43
  L 174.23 141.40
  A 1.10 1.09 -76.0 0 0 173.24 142.00
  Z
  M 174.35 138.58
  A 0.49 0.49 0.0 0 0 174.81 139.25
  L 179.61 139.19
  A 0.49 0.49 0.0 0 0 180.06 138.50
  L 177.58 132.94
  A 0.49 0.49 0.0 0 0 176.68 132.95
  L 174.35 138.58
  Z"
/>
<path fill="#033d68" d="
  M 62.7292 137.2985
  A 8.49 7.31 0.8 0 1 54.1379 144.4893
  A 8.49 7.31 0.8 0 1 45.7508 137.0615
  A 8.49 7.31 0.8 0 1 54.3421 129.8707
  A 8.49 7.31 0.8 0 1 62.7292 137.2985
  Z
  M 59.2123 135.9787
  A 3.79 3.79 0.0 0 0 55.4289 132.1821
  L 53.0289 132.1779
  A 3.79 3.79 0.0 0 0 49.2323 135.9613
  L 49.2277 138.5813
  A 3.79 3.79 0.0 0 0 53.0111 142.3779
  L 55.4111 142.3821
  A 3.79 3.79 0.0 0 0 59.2077 138.5987
  L 59.2123 135.9787
  Z"
/>
<path fill="#033d68" d="
  M 71.99 132.64
  L 71.86 143.75
  A 0.43 0.43 0.0 0 1 71.41 144.18
  L 69.30 144.13
  A 0.43 0.43 0.0 0 1 68.88 143.70
  L 68.82 132.69
  A 0.43 0.43 0.0 0 0 68.41 132.27
  L 64.29 132.14
  A 0.43 0.43 0.0 0 1 63.87 131.74
  L 63.80 130.65
  A 0.43 0.43 0.0 0 1 64.23 130.19
  L 77.44 130.09
  A 0.43 0.43 0.0 0 1 77.87 130.48
  L 77.99 131.77
  A 0.43 0.43 0.0 0 1 77.56 132.24
  L 72.42 132.21
  A 0.43 0.43 0.0 0 0 71.99 132.64
  Z"
/>
<path fill="#033d68" d="
  M 100.69 138.47
  L 100.64 142.07
  A 0.35 0.35 0.0 0 0 100.98 142.42
  L 108.66 142.45
  A 0.35 0.35 0.0 0 1 109.01 142.77
  L 109.11 143.81
  A 0.35 0.35 0.0 0 1 108.76 144.20
  L 98.13 144.10
  A 0.35 0.35 0.0 0 1 97.78 143.75
  L 97.82 130.56
  A 0.35 0.35 0.0 0 1 98.16 130.22
  L 108.73 130.07
  A 0.35 0.35 0.0 0 1 109.08 130.42
  L 109.08 131.85
  A 0.35 0.35 0.0 0 1 108.73 132.20
  L 100.95 132.17
  A 0.35 0.35 0.0 0 0 100.60 132.53
  L 100.66 135.61
  A 0.35 0.35 0.0 0 0 101.01 135.95
  L 108.32 135.95
  A 0.35 0.35 0.0 0 1 108.67 136.29
  L 108.70 137.73
  A 0.35 0.35 0.0 0 1 108.35 138.09
  L 101.04 138.13
  A 0.35 0.35 0.0 0 0 100.69 138.47
  Z"
/>
<path fill="#033d68" d="
  M 121.83 138.86
  L 124.94 142.96
  A 0.69 0.69 0.0 0 1 124.77 143.95
  Q 123.28 144.94 121.86 143.11
  A 16.19 1.20 50.2 0 0 120.50 141.40
  Q 119.73 140.45 119.09 139.44
  Q 118.75 138.91 118.12 138.87
  L 115.31 138.72
  Q 114.55 138.67 114.54 139.44
  L 114.52 143.07
  Q 114.51 144.17 113.43 144.30
  L 113.13 144.33
  Q 111.50 144.53 111.50 142.88
  L 111.50 131.22
  A 1.07 1.07 0.0 0 1 112.49 130.15
  C 115.44 129.93 125.41 129.11 124.84 134.48
  Q 124.56 137.05 122.03 138.11
  Q 121.44 138.35 121.83 138.86
  Z
  M 114.54 132.86
  L 114.47 135.70
  A 0.79 0.79 0.0 0 0 115.24 136.51
  L 118.97 136.60
  A 2.90 2.03 1.4 0 0 121.91 134.64
  L 121.92 134.28
  A 2.90 2.03 1.4 0 0 119.07 132.18
  L 115.34 132.09
  A 0.79 0.79 0.0 0 0 114.54 132.86
  Z"
/>
<path fill="#033d68" d="
  M 136.61 141.75
  A 1.33 1.33 0.0 0 0 136.18 139.35
  Q 133.46 138.68 130.87 137.84
  C 128.35 137.02 126.75 133.78 129.09 131.70
  C 131.80 129.29 135.54 129.61 138.59 131.09
  Q 139.35 131.46 139.22 132.30
  Q 139.13 132.86 138.58 132.73
  C 136.87 132.33 130.77 130.97 130.32 133.96
  A 1.42 1.41 -80.6 0 0 131.47 135.57
  Q 134.59 136.12 137.21 136.96
  C 139.38 137.67 141.40 140.75 139.09 142.54
  C 136.09 144.88 131.51 144.85 128.38 143.06
  Q 128.07 142.89 127.93 142.55
  Q 127.82 142.26 127.97 141.99
  A 0.60 0.59 24.1 0 1 128.66 141.73
  C 131.13 142.48 134.48 143.19 136.61 141.75
  Z"
/>
<path fill="#033d68" d="
  M 144.84 130.23
  A 0.51 0.51 0.0 0 1 145.33 130.76
  L 145.32 131.00
  A 4.91 1.35 -87.5 0 1 143.76 135.84
  L 143.44 135.83
  A 4.91 1.35 -87.5 0 1 142.30 130.87
  L 142.31 130.63
  A 0.51 0.51 0.0 0 1 142.84 130.14
  L 144.84 130.23
  Z"
/>
<path fill="#033d68" d="
  M 157.26 139.26
  C 158.32 143.55 164.09 142.55 167.18 141.74
  Q 167.85 141.56 167.91 142.26
  L 167.93 142.56
  A 0.49 0.48 75.7 0 1 167.66 143.03
  C 163.90 144.86 155.55 145.15 154.12 139.87
  C 151.75 131.16 160.24 128.34 166.83 130.84
  Q 167.70 131.16 167.82 132.08
  L 167.87 132.45
  A 0.37 0.37 0.0 0 1 167.41 132.86
  C 162.25 131.62 155.28 131.18 157.26 139.26
  Z"
/>
<path fill="#033d68" d="
  M 197.66 139.02
  L 200.56 142.85
  Q 201.31 143.84 200.10 144.17
  Q 199.94 144.21 199.78 144.22
  A 2.62 2.60 67.3 0 1 197.58 143.31
  Q 196.14 141.61 195.36 139.61
  Q 195.15 139.06 194.58 138.90
  Q 193.24 138.52 191.79 138.78
  Q 191.18 138.89 191.19 139.50
  L 191.24 143.22
  Q 191.25 144.19 190.28 144.27
  L 189.70 144.32
  Q 188.22 144.44 188.22 142.95
  L 188.18 131.51
  A 1.41 1.40 88.3 0 1 189.50 130.10
  Q 193.04 129.87 196.42 130.31
  C 200.18 130.79 202.15 134.40 198.88 137.44
  Q 198.44 137.84 197.91 138.07
  Q 197.18 138.38 197.66 139.02
  Z
  M 191.19 133.08
  L 191.21 135.76
  A 0.95 0.95 0.0 0 0 192.17 136.70
  L 194.18 136.68
  A 3.48 2.10 -0.6 0 0 197.64 134.55
  L 197.64 134.17
  A 3.48 2.10 -0.6 0 0 194.14 132.10
  L 192.13 132.12
  A 0.95 0.95 0.0 0 0 191.19 133.08
  Z"
/>
<path fill="#033d68" d="
  M 206.92 138.48
  L 206.86 142.09
  A 0.31 0.31 0.0 0 0 207.16 142.40
  L 215.19 142.52
  A 0.31 0.31 0.0 0 1 215.49 142.79
  L 215.62 143.78
  A 0.31 0.31 0.0 0 1 215.31 144.13
  L 204.43 144.18
  A 0.31 0.31 0.0 0 1 204.12 143.87
  L 204.00 130.41
  A 0.31 0.31 0.0 0 1 204.32 130.09
  L 215.25 130.23
  A 0.31 0.31 0.0 0 1 215.55 130.58
  L 215.38 131.93
  A 0.31 0.31 0.0 0 1 215.07 132.20
  L 207.14 132.26
  A 0.31 0.31 0.0 0 0 206.83 132.57
  L 206.86 135.60
  A 0.31 0.31 0.0 0 0 207.16 135.90
  L 214.84 136.02
  A 0.31 0.31 0.0 0 1 215.15 136.37
  L 215.00 137.84
  A 0.31 0.31 0.0 0 1 214.69 138.12
  L 207.23 138.18
  A 0.31 0.31 0.0 0 0 206.92 138.48
  Z"
/>
<path fill="#ffffff" d="
  M 114.54 132.86
  A 0.79 0.79 0.0 0 1 115.34 132.09
  L 119.07 132.18
  A 2.90 2.03 1.4 0 1 121.92 134.28
  L 121.91 134.64
  A 2.90 2.03 1.4 0 1 118.97 136.60
  L 115.24 136.51
  A 0.79 0.79 0.0 0 1 114.47 135.70
  L 114.54 132.86
  Z"
/>
<path fill="#ffffff" d="
  M 191.19 133.08
  A 0.95 0.95 0.0 0 1 192.13 132.12
  L 194.14 132.10
  A 3.48 2.10 -0.6 0 1 197.64 134.17
  L 197.64 134.55
  A 3.48 2.10 -0.6 0 1 194.18 136.68
  L 192.17 136.70
  A 0.95 0.95 0.0 0 1 191.21 135.76
  L 191.19 133.08
  Z"
/>
<rect fill="#ffffff" x="-4.99" y="-5.10" transform="translate(54.22,137.28) rotate(0.1)" width="9.98" height="10.20" rx="3.79"/>
<path fill="#ffffff" d="
  M 174.35 138.58
  L 176.68 132.95
  A 0.49 0.49 0.0 0 1 177.58 132.94
  L 180.06 138.50
  A 0.49 0.49 0.0 0 1 179.61 139.19
  L 174.81 139.25
  A 0.49 0.49 0.0 0 1 174.35 138.58
  Z"
/>
<rect fill="#033d68" x="33.55" y="151.06" width="173.42" height="1.44" rx="0.52"/>
<path fill="#209a1f" d="
  M 29.94 163.15
  L 27.90 167.25
  Q 27.16 168.74 26.51 167.21
  L 23.92 161.09
  A 0.34 0.33 68.7 0 1 24.11 160.65
  L 24.40 160.54
  Q 24.91 160.35 25.09 160.86
  L 26.61 165.30
  A 0.55 0.54 -37.2 0 0 27.57 165.43
  Q 28.77 163.73 29.38 161.75
  Q 30.28 158.83 31.34 161.69
  Q 32.00 163.48 32.73 165.07
  A 0.74 0.74 0.0 0 0 34.09 165.03
  L 35.77 160.65
  A 0.55 0.54 24.7 0 1 36.54 160.37
  L 36.82 160.52
  A 0.45 0.44 27.8 0 1 37.01 161.11
  L 34.01 167.31
  A 0.73 0.73 0.0 0 1 32.70 167.31
  L 30.73 163.16
  Q 30.34 162.35 29.94 163.15
  Z"
/>
<path fill="#209a1f" d="
  M 43.52 164.46
  Q 42.96 164.37 42.85 164.93
  Q 42.73 165.53 42.92 166.08
  Q 43.15 166.76 43.86 166.76
  L 46.01 166.79
  Q 46.44 166.79 46.62 167.19
  Q 46.70 167.39 46.59 167.53
  Q 46.46 167.69 46.24 167.71
  Q 44.21 167.89 42.26 167.60
  Q 41.70 167.52 41.71 166.95
  L 41.79 161.33
  Q 41.80 160.75 42.36 160.63
  Q 44.49 160.15 46.49 160.52
  Q 46.69 160.56 46.69 160.76
  L 46.69 161.11
  Q 46.69 161.47 46.33 161.46
  L 43.75 161.38
  Q 42.60 161.35 42.73 162.50
  L 42.78 162.94
  A 0.96 0.95 87.8 0 0 43.68 163.78
  L 45.71 163.89
  Q 45.96 163.90 45.92 164.16
  L 45.87 164.48
  Q 45.82 164.81 45.49 164.76
  L 43.52 164.46
  Z"
/>
<path fill="#209a1f" d="
  M 60.77 161.72
  A 2.47 2.47 0.0 0 0 59.87 165.75
  Q 61.45 167.38 64.28 166.33
  A 0.47 0.47 0.0 0 1 64.88 166.58
  L 64.99 166.82
  Q 65.13 167.14 64.80 167.27
  C 62.24 168.27 57.92 167.79 57.80 164.36
  C 57.65 160.05 62.13 159.63 65.12 161.20
  Q 65.30 161.29 65.22 161.48
  L 65.10 161.75
  Q 64.96 162.08 64.63 161.95
  Q 62.44 161.09 60.77 161.72
  Z"
/>
<path fill="#209a1f" d="
  M 69.91 166.47
  Q 69.63 167.19 69.05 167.74
  Q 68.38 168.37 68.33 167.45
  Q 68.30 166.95 68.57 166.51
  Q 70.37 163.55 71.96 160.82
  A 0.93 0.93 0.0 0 1 73.60 160.89
  Q 74.88 163.57 76.62 166.30
  Q 78.04 168.53 75.75 167.23
  Q 75.35 167.00 75.24 166.50
  A 0.97 0.96 83.6 0 0 74.30 165.74
  L 70.96 165.75
  A 1.13 1.13 0.0 0 0 69.91 166.47
  Z
  M 72.50 162.26
  L 71.12 164.33
  A 0.25 0.25 0.0 0 0 71.19 164.68
  L 71.36 164.79
  A 1.95 1.49 33.6 0 0 73.81 164.62
  L 73.81 164.62
  A 1.95 1.49 33.6 0 0 73.01 162.30
  L 72.84 162.19
  A 0.25 0.25 0.0 0 0 72.50 162.26
  Z"
/>
<path fill="#209a1f" d="
  M 83.07 165.04
  Q 83.00 166.01 83.27 166.98
  A 0.62 0.62 0.0 0 1 82.73 167.76
  L 82.41 167.80
  A 0.60 0.60 0.0 0 1 81.75 167.20
  L 81.75 161.27
  Q 81.75 160.56 82.45 160.46
  Q 84.48 160.14 86.48 160.53
  A 1.78 1.77 -72.5 0 1 87.76 163.00
  Q 86.86 164.98 87.91 167.10
  Q 88.07 167.43 87.81 167.70
  Q 87.71 167.80 87.54 167.78
  Q 87.41 167.77 87.34 167.67
  C 86.09 165.85 86.48 164.84 83.81 164.44
  Q 83.12 164.34 83.07 165.04
  Z
  M 86.9985 162.6240
  A 1.10 1.10 0.0 0 0 85.9556 161.4698
  L 84.0580 161.3736
  A 1.10 1.10 0.0 0 0 82.9038 162.4166
  L 82.8815 162.8560
  A 1.10 1.10 0.0 0 0 83.9244 164.0102
  L 85.8220 164.1064
  A 1.10 1.10 0.0 0 0 86.9762 163.0634
  L 86.9985 162.6240
  Z"
/>
<path fill="#209a1f" d="
  M 94.73 163.82
  L 97.53 164.13
  Q 97.71 164.15 97.71 164.33
  L 97.71 164.71
  Q 97.70 164.92 97.49 164.89
  L 94.69 164.49
  Q 93.74 164.36 93.74 165.31
  L 93.74 165.73
  A 1.02 1.01 -89.4 0 0 94.73 166.75
  L 98.30 166.82
  Q 98.38 166.82 98.38 166.90
  L 98.40 167.25
  Q 98.42 167.73 97.94 167.73
  L 93.92 167.78
  Q 92.54 167.80 92.53 166.42
  L 92.49 161.55
  Q 92.48 160.33 93.70 160.34
  L 97.99 160.36
  Q 98.40 160.36 98.44 160.76
  L 98.47 161.02
  Q 98.50 161.28 98.24 161.32
  Q 96.54 161.60 94.81 161.26
  A 0.93 0.92 -84.9 0 0 93.72 162.18
  L 93.73 162.73
  Q 93.75 163.71 94.73 163.82
  Z"
/>
<path fill="#209a1f" d="
  M 114.07 165.78
  L 110.95 165.78
  A 0.88 0.87 6.1 0 0 110.09 166.46
  Q 109.97 167.03 109.55 167.40
  Q 108.92 167.98 109.12 167.14
  Q 110.07 163.24 111.81 160.76
  A 0.91 0.90 47.5 0 1 113.33 160.83
  L 116.92 166.97
  A 0.59 0.58 51.4 0 1 116.85 167.65
  L 116.67 167.85
  A 0.19 0.19 0.0 0 1 116.39 167.84
  L 115.07 166.25
  A 1.30 1.30 0.0 0 0 114.07 165.78
  Z
  M 111.50 165.06
  L 113.55 165.02
  A 0.25 0.25 0.0 0 0 113.80 164.77
  L 113.80 164.62
  A 2.48 1.27 89.0 0 0 112.48 162.16
  L 112.46 162.16
  A 2.48 1.27 89.0 0 0 111.24 164.66
  L 111.24 164.81
  A 0.25 0.25 0.0 0 0 111.50 165.06
  Z"
/>
<path fill="#209a1f" d="
  M 121.52 161.16
  A 0.71 0.71 0.0 0 1 122.20 160.43
  L 125.82 160.30
  A 2.59 2.01 -2.0 0 1 128.48 162.22
  L 128.60 165.64
  A 2.59 2.01 -2.0 0 1 126.08 167.74
  L 122.46 167.86
  A 0.71 0.71 0.0 0 1 121.73 167.18
  L 121.52 161.16
  Z
  M 127.1200 162.8027
  A 2.26 1.42 5.4 0 0 125.0036 161.1763
  A 2.26 1.42 5.4 0 0 122.6200 162.3773
  A 2.26 1.42 5.4 0 0 124.7364 164.0037
  A 2.26 1.42 5.4 0 0 127.1200 162.8027
  Z
  M 127.22 165.38
  A 0.84 0.84 0.0 0 0 126.38 164.54
  L 123.52 164.54
  A 0.84 0.84 0.0 0 0 122.68 165.38
  L 122.68 165.96
  A 0.84 0.84 0.0 0 0 123.52 166.80
  L 126.38 166.80
  A 0.84 0.84 0.0 0 0 127.22 165.96
  L 127.22 165.38
  Z"
/>
<path fill="#209a1f" d="
  M 140.7925 164.3226
  A 4.26 3.79 3.4 0 1 136.3152 167.8533
  A 4.26 3.79 3.4 0 1 132.2875 163.8174
  A 4.26 3.79 3.4 0 1 136.7648 160.2867
  A 4.26 3.79 3.4 0 1 140.7925 164.3226
  Z
  M 139.41 164.05
  A 2.86 2.86 0.0 0 0 136.55 161.19
  A 2.86 2.86 0.0 0 0 133.69 164.05
  A 2.86 2.86 0.0 0 0 136.55 166.91
  A 2.86 2.86 0.0 0 0 139.41 164.05
  Z"
/>
<path fill="#209a1f" d="
  M 159.48 161.46
  Q 158.22 161.60 157.02 161.33
  Q 156.72 161.26 156.74 160.96
  L 156.77 160.60
  Q 156.80 160.15 157.24 160.22
  Q 160.44 160.72 163.87 160.21
  A 0.48 0.48 0.0 0 1 164.42 160.67
  L 164.43 161.00
  Q 164.43 161.19 164.25 161.21
  L 161.82 161.54
  Q 161.25 161.62 161.23 162.19
  L 161.09 167.45
  Q 161.08 167.90 160.63 167.92
  L 160.30 167.94
  Q 160.04 167.95 160.00 167.69
  Q 159.52 164.69 160.05 162.09
  Q 160.19 161.39 159.48 161.46
  Z"
/>
<path fill="#209a1f" d="
  M 176.56 163.22
  Q 177.19 164.12 177.69 163.14
  Q 178.57 161.44 179.90 160.46
  Q 180.87 159.74 180.59 160.92
  C 179.93 163.64 176.96 163.35 177.77 167.26
  A 0.52 0.52 0.0 0 1 177.40 167.87
  L 177.05 167.98
  Q 176.47 168.15 176.49 167.55
  L 176.54 165.27
  Q 176.55 164.68 176.12 164.27
  Q 174.72 162.96 173.91 161.09
  A 0.53 0.53 0.0 0 1 174.12 160.43
  L 174.37 160.27
  Q 174.44 160.22 174.50 160.29
  L 176.56 163.22
  Z"
/>
<path fill="#209a1f" d="
  M 193.33 164.06
  A 4.21 3.79 0.0 0 1 189.12 167.85
  A 4.21 3.79 0.0 0 1 184.91 164.06
  A 4.21 3.79 0.0 0 1 189.12 160.27
  A 4.21 3.79 0.0 0 1 193.33 164.06
  Z
  M 192.0751 164.2815
  A 2.98 2.83 3.3 0 0 189.2629 161.2847
  A 2.98 2.83 3.3 0 0 186.1249 163.9385
  A 2.98 2.83 3.3 0 0 188.9371 166.9353
  A 2.98 2.83 3.3 0 0 192.0751 164.2815
  Z"
/>
<path fill="#209a1f" d="
  M 200.60 166.82
  Q 200.93 166.90 201.28 166.86
  Q 203.87 166.58 203.74 163.97
  L 203.57 160.66
  A 0.30 0.30 0.0 0 1 203.82 160.35
  L 204.17 160.30
  Q 204.85 160.19 204.92 160.87
  C 205.36 164.96 205.28 168.37 199.88 167.72
  C 196.88 167.36 197.51 163.29 197.30 161.23
  Q 197.22 160.45 198.00 160.50
  L 198.32 160.52
  Q 199.08 160.57 198.94 161.32
  Q 198.60 163.01 198.72 164.64
  Q 198.84 166.43 200.60 166.82
  Z"
/>
<path fill="#209a1f" d="
  M 211.65 164.64
  Q 211.30 165.97 211.55 167.37
  Q 211.66 167.96 211.06 167.91
  L 210.73 167.89
  A 0.64 0.63 -88.1 0 1 210.14 167.25
  L 210.20 161.03
  A 0.65 0.65 0.0 0 1 210.84 160.38
  L 214.43 160.31
  A 2.14 2.14 0.0 0 1 216.41 163.35
  Q 215.56 165.21 216.46 167.09
  Q 216.63 167.44 216.27 167.61
  L 216.02 167.72
  Q 215.87 167.79 215.79 167.64
  L 214.63 165.46
  Q 214.35 164.94 213.77 164.83
  L 212.40 164.58
  Q 211.63 164.44 212.39 164.25
  C 213.26 164.03 214.08 164.46 214.91 164.09
  Q 215.54 163.81 215.64 163.07
  Q 215.73 162.37 215.17 161.92
  Q 213.82 160.83 212.20 161.46
  Q 210.77 162.01 211.51 163.43
  Q 211.82 164.01 211.65 164.64
  Z"
/>
<path fill="#209a1f" d="
  M 149.82 166.89
  Q 151.19 166.98 151.59 165.66
  Q 152.21 163.58 151.85 160.89
  Q 151.81 160.61 152.09 160.59
  L 152.45 160.56
  Q 152.75 160.54 152.75 160.83
  C 152.77 162.84 153.02 165.28 152.01 167.09
  Q 151.69 167.67 151.03 167.76
  Q 148.64 168.11 146.83 166.89
  A 1.50 1.50 0.0 0 1 146.22 166.02
  Q 145.56 163.57 145.96 160.82
  A 0.45 0.45 0.0 0 1 146.50 160.45
  L 146.97 160.56
  Q 147.20 160.61 147.21 160.85
  C 147.33 163.13 146.22 166.67 149.82 166.89
  Z"
/>
<ellipse fill="#ffffff" cx="0.00" cy="0.00" transform="translate(124.87,162.59) rotate(5.4)" rx="2.26" ry="1.42"/>
<circle fill="#ffffff" cx="136.55" cy="164.05" r="2.86"/>
<ellipse fill="#ffffff" cx="0.00" cy="0.00" transform="translate(189.10,164.11) rotate(3.3)" rx="2.98" ry="2.83"/>
<rect fill="#ffffff" x="-2.05" y="-1.32" transform="translate(84.94,162.74) rotate(2.9)" width="4.10" height="2.64" rx="1.10"/>
<path fill="#ffffff" d="
  M 72.50 162.26
  A 0.25 0.25 0.0 0 1 72.84 162.19
  L 73.01 162.30
  A 1.95 1.49 33.6 0 1 73.81 164.62
  L 73.81 164.62
  A 1.95 1.49 33.6 0 1 71.36 164.79
  L 71.19 164.68
  A 0.25 0.25 0.0 0 1 71.12 164.33
  L 72.50 162.26
  Z"
/>
<path fill="#ffffff" d="
  M 111.50 165.06
  A 0.25 0.25 0.0 0 1 111.24 164.81
  L 111.24 164.66
  A 2.48 1.27 89.0 0 1 112.46 162.16
  L 112.48 162.16
  A 2.48 1.27 89.0 0 1 113.80 164.62
  L 113.80 164.77
  A 0.25 0.25 0.0 0 1 113.55 165.02
  L 111.50 165.06
  Z"
/>
<rect fill="#ffffff" x="122.68" y="164.54" width="4.54" height="2.26" rx="0.84"/>
<ellipse fill="#209a1f" cx="0.00" cy="0.00" transform="translate(89.22,175.87) rotate(88.4)" rx="4.08" ry="0.72"/>
<path fill="#209a1f" d="
  M 95.16 176.45
  A 0.67 0.66 -6.6 0 0 94.31 175.78
  Q 92.48 176.30 90.85 175.80
  Q 90.10 175.57 90.88 175.45
  Q 92.53 175.20 94.42 175.45
  Q 95.15 175.56 95.14 174.82
  L 95.11 172.36
  A 0.35 0.34 -87.1 0 1 95.49 172.01
  L 95.81 172.05
  Q 96.45 172.12 96.45 172.76
  L 96.41 178.97
  A 0.63 0.62 88.5 0 1 95.83 179.59
  L 95.43 179.61
  A 0.40 0.40 0.0 0 1 95.00 179.18
  L 95.16 176.45
  Z"
/>
<path fill="#209a1f" d="
  M 102.74 173.75
  Q 102.65 174.55 103.00 175.27
  Q 103.19 175.66 102.97 176.03
  Q 102.59 176.71 102.63 177.52
  A 1.42 1.42 0.0 0 0 104.32 178.84
  L 106.76 178.38
  A 0.53 0.53 0.0 0 1 107.39 178.87
  L 107.41 179.23
  Q 107.44 179.71 106.95 179.71
  L 103.10 179.73
  A 1.48 1.47 0.6 0 1 101.62 178.23
  L 101.72 173.02
  Q 101.73 172.39 102.34 172.27
  Q 104.78 171.78 107.01 172.32
  A 0.37 0.37 0.0 0 1 107.27 172.79
  L 107.19 173.03
  A 0.42 0.41 16.2 0 1 106.70 173.29
  Q 104.99 172.89 103.35 173.12
  A 0.72 0.71 -1.1 0 0 102.74 173.75
  Z"
/>
<path fill="#209a1f" d="
  M 125.98 178.58
  Q 127.01 178.82 128.11 178.50
  Q 128.75 178.31 129.37 178.57
  Q 129.66 178.70 129.76 179.03
  A 0.57 0.57 0.0 0 1 129.19 179.76
  L 125.03 179.58
  Q 124.27 179.54 124.26 178.78
  L 124.21 172.55
  Q 124.20 172.11 124.64 172.08
  L 124.98 172.06
  Q 125.29 172.04 125.33 172.35
  Q 125.67 174.98 125.35 177.68
  Q 125.26 178.42 125.98 178.58
  Z"
/>
<path fill="#209a1f" d="
  M 135.53 173.37
  L 132.53 173.14
  A 0.23 0.23 0.0 0 1 132.34 172.80
  L 132.56 172.38
  A 0.23 0.23 0.0 0 1 132.76 172.26
  L 140.04 172.15
  A 0.23 0.23 0.0 0 1 140.27 172.37
  L 140.32 173.01
  A 0.23 0.23 0.0 0 1 140.09 173.26
  L 137.19 173.37
  A 0.23 0.23 0.0 0 0 136.97 173.60
  L 137.00 179.58
  A 0.23 0.23 0.0 0 1 136.78 179.81
  L 136.05 179.85
  A 0.23 0.23 0.0 0 1 135.81 179.62
  L 135.74 173.60
  A 0.23 0.23 0.0 0 0 135.53 173.37
  Z"
/>
<ellipse fill="#209a1f" cx="0.00" cy="0.00" transform="translate(145.30,175.87) rotate(88.4)" rx="3.99" ry="0.76"/>
<path fill="#209a1f" d="
  M 150.16 175.76
  Q 148.74 176.12 147.23 175.80
  Q 146.35 175.62 147.22 175.41
  Q 148.80 175.04 150.25 175.57
  Q 151.17 175.90 151.14 174.92
  L 151.06 172.40
  Q 151.05 172.06 151.39 172.05
  L 151.73 172.05
  Q 151.90 172.04 151.93 172.21
  Q 152.46 175.45 152.13 178.81
  Q 152.08 179.32 151.70 179.63
  A 0.36 0.36 0.0 0 1 151.11 179.35
  L 151.06 176.44
  A 0.72 0.72 0.0 0 0 150.16 175.76
  Z"
/>
<path fill="#209a1f" d="
  M 116.66 177.44
  Q 115.37 178.00 113.98 177.58
  A 0.95 0.94 28.1 0 0 112.97 177.88
  L 111.60 179.56
  Q 111.40 179.81 111.16 179.60
  L 110.90 179.39
  Q 110.80 179.31 110.86 179.20
  L 114.51 172.55
  A 0.82 0.82 0.0 0 1 115.93 172.53
  L 119.76 179.05
  A 0.39 0.39 0.0 0 1 119.55 179.61
  L 119.24 179.72
  A 0.45 0.44 -24.4 0 1 118.71 179.53
  L 117.61 177.74
  Q 117.27 177.18 116.66 177.44
  Z
  M 116.69 175.85
  Q 116.36 174.69 115.49 174.19
  Q 114.98 173.90 114.64 174.38
  Q 114.09 175.15 113.90 176.02
  Q 113.74 176.79 114.52 176.83
  L 115.86 176.89
  Q 117.00 176.94 116.69 175.85
  Z"
/>
<path fill="#ffffff" d="
  M 116.69 175.85
  Q 117.00 176.94 115.86 176.89
  L 114.52 176.83
  Q 113.74 176.79 113.90 176.02
  Q 114.09 175.15 114.64 174.38
  Q 114.98 173.90 115.49 174.19
  Q 116.36 174.69 116.69 175.85
  Z"
/>
<path fill="#43b83f" d="
  M 104.14 175.43
  Q 105.30 174.94 106.26 175.26
  Q 107.61 175.71 106.28 176.21
  Q 105.63 176.46 104.16 175.95
  Q 103.47 175.71 104.14 175.43
  Z"
/>
</svg>
