<?xml version="1.0" encoding="UTF-8" standalone="no"?>
<!DOCTYPE svg PUBLIC "-//W3C//DTD SVG 1.1//EN" "http://www.w3.org/Graphics/SVG/1.1/DTD/svg11.dtd">
<svg xmlns="http://www.w3.org/2000/svg" version="1.1" viewBox="0.00 0.00 512.00 512.00">
<g stroke-width="2.00" fill="none" stroke-linecap="butt">
<path stroke="#22c68d" vector-effect="non-scaling-stroke" d="
  M 407.23 258.30
  Q 403.10 256.71 399.03 255.01
  C 351.24 235.10 297.14 254.94 273.29 300.23
  C 257.38 330.46 258.72 365.46 275.04 395.27
  C 276.22 397.43 277.97 399.60 279.40 401.75"
/>
<path stroke="#12b994" vector-effect="non-scaling-stroke" d="
  M 279.40 401.75
  L 279.31 402.51"
/>
<path stroke="#24c6a0" vector-effect="non-scaling-stroke" d="
  M 407.49 258.82
  Q 407.44 259.41 407.00 259.97
  A 1.46 1.40 -23.5 0 0 406.71 260.66
  C 396.85 329.59 347.83 383.92 280.77 402.03
  Q 280.32 402.16 279.92 401.92
  Q 279.65 401.77 279.40 401.75"
/>
<path stroke="#47c6bf" vector-effect="non-scaling-stroke" d="
  M 266.56 208.12
  Q 266.23 183.28 266.49 176.50
  C 266.70 171.15 264.06 169.56 258.98 169.58
  Q 246.06 169.64 222.99 169.51
  C 219.19 169.49 217.55 171.91 217.54 175.61
  Q 217.52 191.79 217.51 207.78
  A 0.59 0.59 0.0 0 1 216.92 208.37
  Q 200.89 208.19 185.22 208.41
  C 180.76 208.47 178.50 209.88 178.49 214.50
  Q 178.45 232.82 178.50 251.14
  C 178.52 255.19 180.19 257.19 184.25 257.19
  Q 200.62 257.23 216.96 257.19
  Q 217.53 257.19 217.53 257.75
  L 217.54 291.29
  A 4.96 4.96 0.0 0 0 222.50 296.25
  Q 240.52 296.24 258.95 296.25
  C 264.26 296.25 266.43 294.61 266.45 289.24
  Q 266.52 273.37 266.46 257.65
  A 0.48 0.47 -89.4 0 1 266.94 257.17
  Q 283.21 257.26 299.60 257.16
  C 305.76 257.12 305.30 252.43 305.34 247.31
  Q 305.48 231.20 305.29 215.10
  C 305.25 212.04 304.12 208.62 300.76 208.61
  Q 283.91 208.58 267.08 208.63
  Q 266.57 208.63 266.56 208.12"
/>
</g>
<path fill="#10b981" d="
  M 407.23 258.30
  Q 403.10 256.71 399.03 255.01
  C 351.24 235.10 297.14 254.94 273.29 300.23
  C 257.38 330.46 258.72 365.46 275.04 395.27
  C 276.22 397.43 277.97 399.60 279.40 401.75
  L 279.31 402.51
  Q 218.65 416.93 163.12 389.92
  A 2.57 2.54 -41.0 0 0 161.20 389.80
  Q 117.33 404.35 73.22 419.09
  Q 66.96 421.19 65.45 421.31
  C 59.67 421.77 54.15 416.74 54.04 410.93
  Q 54.00 408.69 55.77 403.42
  Q 70.78 358.65 85.67 313.85
  Q 85.83 313.37 85.61 312.91
  Q 57.69 255.16 73.50 193.86
  C 83.20 156.26 106.11 123.06 137.12 100.14
  C 187.55 62.88 256.19 56.19 312.72 83.55
  C 343.64 98.52 369.78 122.88 386.74 152.98
  Q 414.06 201.45 407.23 258.30
  Z
  M 266.56 208.12
  Q 266.23 183.28 266.49 176.50
  C 266.70 171.15 264.06 169.56 258.98 169.58
  Q 246.06 169.64 222.99 169.51
  C 219.19 169.49 217.55 171.91 217.54 175.61
  Q 217.52 191.79 217.51 207.78
  A 0.59 0.59 0.0 0 1 216.92 208.37
  Q 200.89 208.19 185.22 208.41
  C 180.76 208.47 178.50 209.88 178.49 214.50
  Q 178.45 232.82 178.50 251.14
  C 178.52 255.19 180.19 257.19 184.25 257.19
  Q 200.62 257.23 216.96 257.19
  Q 217.53 257.19 217.53 257.75
  L 217.54 291.29
  A 4.96 4.96 0.0 0 0 222.50 296.25
  Q 240.52 296.24 258.95 296.25
  C 264.26 296.25 266.43 294.61 266.45 289.24
  Q 266.52 273.37 266.46 257.65
  A 0.48 0.47 -89.4 0 1 266.94 257.17
  Q 283.21 257.26 299.60 257.16
  C 305.76 257.12 305.30 252.43 305.34 247.31
  Q 305.48 231.20 305.29 215.10
  C 305.25 212.04 304.12 208.62 300.76 208.61
  Q 283.91 208.58 267.08 208.63
  Q 266.57 208.63 266.56 208.12
  Z"
/>
<path fill="#7dd3fc" d="
  M 267.08 208.63
  Q 283.91 208.58 300.76 208.61
  C 304.12 208.62 305.25 212.04 305.29 215.10
  Q 305.48 231.20 305.34 247.31
  C 305.30 252.43 305.76 257.12 299.60 257.16
  Q 283.21 257.26 266.94 257.17
  A 0.48 0.47 -89.4 0 0 266.46 257.65
  Q 266.52 273.37 266.45 289.24
  C 266.43 294.61 264.26 296.25 258.95 296.25
  Q 240.52 296.24 222.50 296.25
  A 4.96 4.96 0.0 0 1 217.54 291.29
  L 217.53 257.75
  Q 217.53 257.19 216.96 257.19
  Q 200.62 257.23 184.25 257.19
  C 180.19 257.19 178.52 255.19 178.50 251.14
  Q 178.45 232.82 178.49 214.50
  C 178.50 209.88 180.76 208.47 185.22 208.41
  Q 200.89 208.19 216.92 208.37
  A 0.59 0.59 0.0 0 0 217.51 207.78
  Q 217.52 191.79 217.54 175.61
  C 217.55 171.91 219.19 169.49 222.99 169.51
  Q 246.06 169.64 258.98 169.58
  C 264.06 169.56 266.70 171.15 266.49 176.50
  Q 266.23 183.28 266.56 208.12
  Q 266.57 208.63 267.08 208.63
  Z"
/>
<path fill="#34d399" d="
  M 407.23 258.30
  Q 407.39 258.43 407.49 258.82
  Q 407.44 259.41 407.00 259.97
  A 1.46 1.40 -23.5 0 0 406.71 260.66
  C 396.85 329.59 347.83 383.92 280.77 402.03
  Q 280.32 402.16 279.92 401.92
  Q 279.65 401.77 279.40 401.75
  C 277.97 399.60 276.22 397.43 275.04 395.27
  C 258.72 365.46 257.38 330.46 273.29 300.23
  C 297.14 254.94 351.24 235.10 399.03 255.01
  Q 403.10 256.71 407.23 258.30
  Z"
/>
<path fill="#14b8a6" d="
  M 407.49 258.82
  C 446.74 280.17 467.50 323.83 457.54 367.86
  C 451.98 392.46 437.47 413.87 416.49 427.95
  C 372.11 457.75 313.59 447.60 281.32 404.73
  Q 281.21 404.58 280.56 403.44
  Q 280.05 402.55 279.31 402.51
  L 279.40 401.75
  Q 279.65 401.77 279.92 401.92
  Q 280.32 402.16 280.77 402.03
  C 347.83 383.92 396.85 329.59 406.71 260.66
  A 1.46 1.40 -23.5 0 1 407.00 259.97
  Q 407.44 259.41 407.49 258.82
  Z"
/>
</svg>
